<svg width="32" height="32" viewBox="0 0 32 32" fill="none" xmlns="http://www.w3.org/2000/svg">
<g clip-path="url(#clip0_142_252)">
<path d="M6.07401 3.67798H3.41381C3.39245 3.67798 3.37196 3.68647 3.35685 3.70158C3.34175 3.71669 3.33326 3.73718 3.33325 3.75854V8.56056C3.33326 8.58192 3.34175 8.60241 3.35685 8.61752C3.37196 8.63262 3.39245 8.64111 3.41381 8.64112H6.07399C6.09535 8.64111 6.11584 8.63262 6.13095 8.61752C6.14606 8.60241 6.15455 8.58192 6.15455 8.56056V3.75854C6.15455 3.73718 6.14606 3.71669 6.13096 3.70159C6.11585 3.68648 6.09537 3.67799 6.07401 3.67798Z" fill="#597B91"/>
<path d="M12.2466 7.29782H6.77602C6.73209 7.29783 6.68995 7.31529 6.65889 7.34636C6.62782 7.37742 6.61036 7.41956 6.61035 7.46349V17.3386C6.61036 17.3825 6.62782 17.4247 6.65889 17.4557C6.68995 17.4868 6.73209 17.5043 6.77602 17.5043H12.2465C12.2905 17.5043 12.3326 17.4868 12.3637 17.4557C12.3948 17.4247 12.4122 17.3825 12.4122 17.3386V7.46349C12.4122 7.41956 12.3948 7.37743 12.3637 7.34637C12.3326 7.3153 12.2905 7.29784 12.2466 7.29782Z" fill="white"/>
<path d="M22.1416 13.1006H12.1659C12.0858 13.1006 12.0089 13.1324 11.9523 13.1891C11.8956 13.2457 11.8638 13.3226 11.8638 13.4027V31.4102C11.8638 31.4904 11.8956 31.5672 11.9523 31.6239C12.0089 31.6805 12.0858 31.7123 12.1659 31.7124H22.1415C22.2217 31.7123 22.2985 31.6805 22.3551 31.6239C22.4118 31.5672 22.4436 31.4904 22.4436 31.4102V13.4027C22.4436 13.3226 22.4118 13.2458 22.3552 13.1891C22.2985 13.1325 22.2217 13.1006 22.1416 13.1006Z" fill="#597B91"/>
<path d="M4.11229 5.82309H3.81324C3.80235 5.8231 3.79157 5.82095 3.78151 5.81679C3.77145 5.81262 3.76231 5.80651 3.75461 5.79882C3.74691 5.79112 3.7408 5.78197 3.73664 5.77191C3.73247 5.76185 3.73033 5.75107 3.73033 5.74018V4.51654C3.73033 4.50566 3.73247 4.49487 3.73664 4.48481C3.7408 4.47475 3.74691 4.46561 3.75461 4.45791C3.76231 4.45021 3.77145 4.4441 3.78151 4.43994C3.79157 4.43577 3.80235 4.43363 3.81324 4.43363H4.11229C4.12318 4.43363 4.13396 4.43577 4.14403 4.43994C4.15409 4.4441 4.16323 4.45021 4.17093 4.45791C4.17863 4.46561 4.18473 4.47475 4.1889 4.48481C4.19306 4.49487 4.19521 4.50566 4.19521 4.51654V5.74018C4.19521 5.75107 4.19306 5.76185 4.1889 5.77191C4.18473 5.78197 4.17863 5.79112 4.17093 5.79882C4.16323 5.80651 4.15409 5.81262 4.14403 5.81679C4.13396 5.82095 4.12318 5.8231 4.11229 5.82309ZM4.96603 5.7402V4.51656C4.96603 4.50567 4.96389 4.49489 4.95972 4.48483C4.95556 4.47477 4.94945 4.46563 4.94175 4.45793C4.93405 4.45023 4.92491 4.44412 4.91485 4.43996C4.90479 4.43579 4.89401 4.43365 4.88312 4.43365H4.58407C4.57318 4.43365 4.5624 4.43579 4.55234 4.43996C4.54228 4.44412 4.53314 4.45023 4.52544 4.45793C4.51774 4.46563 4.51163 4.47477 4.50746 4.48483C4.5033 4.49489 4.50115 4.50567 4.50116 4.51656V5.7402C4.50115 5.75109 4.5033 5.76187 4.50746 5.77193C4.51163 5.78199 4.51774 5.79113 4.52544 5.79883C4.53314 5.80653 4.54228 5.81264 4.55234 5.8168C4.5624 5.82097 4.57318 5.82311 4.58407 5.82311H4.88312C4.89401 5.82311 4.90479 5.82097 4.91485 5.8168C4.92491 5.81264 4.93405 5.80653 4.94175 5.79883C4.94945 5.79113 4.95556 5.78199 4.95972 5.77193C4.96389 5.76187 4.96603 5.75109 4.96603 5.7402ZM5.73687 5.7402V4.51656C5.73688 4.50567 5.73473 4.49489 5.73057 4.48483C5.7264 4.47477 5.72029 4.46563 5.71259 4.45793C5.70489 4.45023 5.69575 4.44412 5.68569 4.43996C5.67563 4.43579 5.66485 4.43365 5.65396 4.43365H5.35491C5.34402 4.43365 5.33324 4.43579 5.32318 4.43996C5.31312 4.44412 5.30398 4.45023 5.29628 4.45793C5.28858 4.46563 5.28247 4.47477 5.27831 4.48483C5.27414 4.49489 5.272 4.50567 5.272 4.51656V5.7402C5.272 5.75109 5.27414 5.76187 5.27831 5.77193C5.28247 5.78199 5.28858 5.79113 5.29628 5.79883C5.30398 5.80653 5.31312 5.81264 5.32318 5.8168C5.33324 5.82097 5.34402 5.82311 5.35491 5.82311H5.65396C5.66485 5.82311 5.67563 5.82097 5.68569 5.8168C5.69575 5.81264 5.70489 5.80653 5.71259 5.79883C5.72029 5.79113 5.7264 5.78199 5.73057 5.77193C5.73473 5.76187 5.73688 5.75109 5.73687 5.7402ZM4.19521 8.19239V6.96875C4.19521 6.95786 4.19306 6.94708 4.1889 6.93702C4.18473 6.92696 4.17863 6.91782 4.17093 6.91012C4.16323 6.90242 4.15409 6.89631 4.14403 6.89215C4.13396 6.88798 4.12318 6.88584 4.11229 6.88584H3.81324C3.80235 6.88584 3.79157 6.88798 3.78151 6.89215C3.77145 6.89631 3.76231 6.90242 3.75461 6.91012C3.74691 6.91782 3.7408 6.92696 3.73664 6.93702C3.73247 6.94708 3.73033 6.95786 3.73033 6.96875V8.19239C3.73033 8.20328 3.73247 8.21406 3.73664 8.22412C3.7408 8.23418 3.74691 8.24332 3.75461 8.25102C3.76231 8.25872 3.77145 8.26483 3.78151 8.269C3.79157 8.27316 3.80235 8.27531 3.81324 8.2753H4.11229C4.12318 8.27531 4.13396 8.27316 4.14403 8.269C4.15409 8.26483 4.16323 8.25872 4.17093 8.25102C4.17863 8.24332 4.18473 8.23418 4.1889 8.22412C4.19306 8.21406 4.19521 8.20328 4.19521 8.19239ZM4.96603 8.19239V6.96875C4.96603 6.95786 4.96389 6.94708 4.95972 6.93702C4.95556 6.92696 4.94945 6.91782 4.94175 6.91012C4.93405 6.90242 4.92491 6.89631 4.91485 6.89215C4.90479 6.88798 4.89401 6.88584 4.88312 6.88584H4.58407C4.57318 6.88584 4.5624 6.88798 4.55234 6.89215C4.54228 6.89631 4.53314 6.90242 4.52544 6.91012C4.51774 6.91782 4.51163 6.92696 4.50746 6.93702C4.5033 6.94708 4.50115 6.95786 4.50116 6.96875V8.19239C4.50115 8.20328 4.5033 8.21406 4.50746 8.22412C4.51163 8.23418 4.51774 8.24332 4.52544 8.25102C4.53314 8.25872 4.54228 8.26483 4.55234 8.269C4.5624 8.27316 4.57318 8.27531 4.58407 8.2753H4.88312C4.89401 8.27531 4.90479 8.27316 4.91485 8.269C4.92491 8.26483 4.93405 8.25872 4.94175 8.25102C4.94945 8.24332 4.95556 8.23418 4.95972 8.22412C4.96389 8.21406 4.96603 8.20328 4.96603 8.19239ZM5.73687 8.19239V6.96875C5.73688 6.95786 5.73473 6.94708 5.73057 6.93702C5.7264 6.92696 5.72029 6.91782 5.71259 6.91012C5.70489 6.90242 5.69575 6.89631 5.68569 6.89215C5.67563 6.88798 5.66485 6.88584 5.65396 6.88584H5.35491C5.34402 6.88584 5.33324 6.88798 5.32318 6.89215C5.31312 6.89631 5.30398 6.90242 5.29628 6.91012C5.28858 6.91782 5.28247 6.92696 5.27831 6.93702C5.27414 6.94708 5.272 6.95786 5.272 6.96875V8.19239C5.272 8.20328 5.27414 8.21406 5.27831 8.22412C5.28247 8.23418 5.28858 8.24332 5.29628 8.25102C5.30398 8.25872 5.31312 8.26483 5.32318 8.269C5.33324 8.27316 5.34402 8.27531 5.35491 8.2753H5.65396C5.66485 8.27531 5.67563 8.27316 5.68569 8.269C5.69575 8.26483 5.70489 8.25872 5.71259 8.25102C5.72029 8.24332 5.7264 8.23418 5.73057 8.22412C5.73473 8.21406 5.73688 8.20328 5.73687 8.19239ZM6.2592 3.96902V3.76311C6.2592 3.74053 6.25023 3.71888 6.23426 3.70291C6.2183 3.68695 6.19665 3.67798 6.17407 3.67798H3.29314C3.27056 3.67798 3.24891 3.68695 3.23294 3.70291C3.21698 3.71888 3.20801 3.74053 3.20801 3.76311V3.96902C3.20801 3.9916 3.21698 4.01325 3.23294 4.02922C3.24891 4.04518 3.27056 4.05415 3.29314 4.05415H6.17407C6.18525 4.05415 6.19632 4.05195 6.20665 4.04768C6.21698 4.0434 6.22636 4.03713 6.23427 4.02922C6.24217 4.02132 6.24844 4.01193 6.25272 4.0016C6.257 3.99127 6.2592 3.9802 6.2592 3.96902ZM6.2592 6.43711V6.2312C6.2592 6.20862 6.25023 6.18697 6.23426 6.171C6.2183 6.15504 6.19665 6.14607 6.17407 6.14607H3.29314C3.27056 6.14607 3.24891 6.15504 3.23294 6.171C3.21698 6.18697 3.20801 6.20862 3.20801 6.2312V6.43711C3.20801 6.45969 3.21698 6.48134 3.23294 6.49731C3.24891 6.51327 3.27056 6.52224 3.29314 6.52224H6.17407C6.18525 6.52225 6.19632 6.52005 6.20665 6.51577C6.21698 6.51149 6.22636 6.50522 6.23427 6.49731C6.24217 6.48941 6.24844 6.48002 6.25272 6.46969C6.257 6.45937 6.2592 6.44829 6.2592 6.43711Z" fill="#2B3B47"/>
<path d="M8.2124 11.7091H7.59742C7.57503 11.7092 7.55285 11.7047 7.53216 11.6962C7.51148 11.6876 7.49268 11.6751 7.47684 11.6592C7.46101 11.6434 7.44845 11.6246 7.43988 11.6039C7.43132 11.5832 7.42691 11.561 7.42691 11.5386V9.02229C7.42691 8.9999 7.43132 8.97772 7.43988 8.95704C7.44845 8.93635 7.46101 8.91755 7.47684 8.90172C7.49268 8.88588 7.51148 8.87332 7.53216 8.86476C7.55285 8.85619 7.57503 8.85178 7.59742 8.85179H8.2124C8.2348 8.85178 8.25697 8.85619 8.27766 8.86476C8.29835 8.87332 8.31714 8.88588 8.33298 8.90172C8.34881 8.91755 8.36137 8.93635 8.36994 8.95704C8.3785 8.97772 8.38291 8.9999 8.38291 9.02229V11.5386C8.38291 11.561 8.3785 11.5832 8.36994 11.6039C8.36137 11.6246 8.34881 11.6434 8.33298 11.6592C8.31714 11.6751 8.29835 11.6876 8.27766 11.6962C8.25697 11.7047 8.2348 11.7092 8.2124 11.7091ZM9.96807 11.5387V9.02232C9.96808 8.99993 9.96367 8.97776 9.9551 8.95707C9.94654 8.93638 9.93398 8.91758 9.91814 8.90175C9.90231 8.88592 9.88351 8.87336 9.86282 8.86479C9.84214 8.85622 9.81996 8.85182 9.79757 8.85182H9.18258C9.16019 8.85182 9.13802 8.85622 9.11733 8.86479C9.09664 8.87336 9.07784 8.88592 9.06201 8.90175C9.04618 8.91758 9.03362 8.93638 9.02505 8.95707C9.01648 8.97776 9.01208 8.99993 9.01208 9.02232V11.5387C9.01208 11.5611 9.01648 11.5832 9.02505 11.6039C9.03362 11.6246 9.04618 11.6434 9.06201 11.6593C9.07784 11.6751 9.09664 11.6876 9.11733 11.6962C9.13802 11.7048 9.16019 11.7092 9.18258 11.7092H9.79757C9.81996 11.7092 9.84214 11.7048 9.86282 11.6962C9.88351 11.6876 9.90231 11.6751 9.91814 11.6593C9.93398 11.6434 9.94654 11.6246 9.9551 11.6039C9.96367 11.5832 9.96808 11.5611 9.96807 11.5387ZM11.5533 11.5387V9.02232C11.5533 8.99993 11.5489 8.97776 11.5403 8.95707C11.5317 8.93638 11.5192 8.91758 11.5033 8.90175C11.4875 8.88592 11.4687 8.87336 11.448 8.86479C11.4273 8.85622 11.4052 8.85182 11.3828 8.85182H10.7678C10.7454 8.85182 10.7232 8.85622 10.7025 8.86479C10.6818 8.87336 10.663 8.88592 10.6472 8.90175C10.6314 8.91758 10.6188 8.93638 10.6103 8.95707C10.6017 8.97776 10.5973 8.99993 10.5973 9.02232V11.5387C10.5973 11.5611 10.6017 11.5832 10.6103 11.6039C10.6188 11.6246 10.6314 11.6434 10.6472 11.6593C10.663 11.6751 10.6818 11.6876 10.7025 11.6962C10.7232 11.7048 10.7454 11.7092 10.7678 11.7092H11.3828C11.4052 11.7092 11.4273 11.7048 11.448 11.6962C11.4687 11.6876 11.4875 11.6751 11.5033 11.6593C11.5192 11.6434 11.5317 11.6246 11.5403 11.6039C11.5489 11.5832 11.5533 11.5611 11.5533 11.5387ZM8.38291 16.5815V14.0651C8.38291 14.0427 8.3785 14.0206 8.36994 13.9999C8.36137 13.9792 8.34881 13.9604 8.33298 13.9446C8.31714 13.9287 8.29835 13.9162 8.27766 13.9076C8.25697 13.899 8.2348 13.8946 8.2124 13.8946H7.59742C7.57503 13.8946 7.55285 13.899 7.53216 13.9076C7.51148 13.9162 7.49268 13.9287 7.47684 13.9446C7.46101 13.9604 7.44845 13.9792 7.43988 13.9999C7.43132 14.0206 7.42691 14.0427 7.42691 14.0651V16.5815C7.42691 16.6039 7.43132 16.6261 7.43988 16.6467C7.44845 16.6674 7.46101 16.6862 7.47684 16.7021C7.49268 16.7179 7.51148 16.7305 7.53216 16.739C7.55285 16.7476 7.57503 16.752 7.59742 16.752H8.2124C8.2348 16.752 8.25697 16.7476 8.27766 16.739C8.29835 16.7305 8.31714 16.7179 8.33298 16.7021C8.34881 16.6862 8.36137 16.6674 8.36994 16.6467C8.3785 16.6261 8.38291 16.6039 8.38291 16.5815ZM9.96807 16.5815V14.0651C9.96808 14.0427 9.96367 14.0206 9.9551 13.9999C9.94654 13.9792 9.93398 13.9604 9.91814 13.9446C9.90231 13.9287 9.88351 13.9162 9.86282 13.9076C9.84214 13.899 9.81996 13.8946 9.79757 13.8946H9.18258C9.16019 13.8946 9.13802 13.899 9.11733 13.9076C9.09664 13.9162 9.07784 13.9287 9.06201 13.9446C9.04618 13.9604 9.03362 13.9792 9.02505 13.9999C9.01648 14.0206 9.01208 14.0427 9.01208 14.0651V16.5815C9.01208 16.6039 9.01648 16.6261 9.02505 16.6467C9.03362 16.6674 9.04618 16.6862 9.06201 16.7021C9.07784 16.7179 9.09664 16.7305 9.11733 16.739C9.13802 16.7476 9.16019 16.752 9.18258 16.752H9.79757C9.81996 16.752 9.84214 16.7476 9.86282 16.739C9.88351 16.7305 9.90231 16.7179 9.91814 16.7021C9.93398 16.6862 9.94654 16.6674 9.9551 16.6467C9.96367 16.6261 9.96808 16.6039 9.96807 16.5815ZM11.5533 16.5815V14.0651C11.5533 14.0427 11.5489 14.0206 11.5403 13.9999C11.5317 13.9792 11.5192 13.9604 11.5033 13.9446C11.4875 13.9287 11.4687 13.9162 11.448 13.9076C11.4273 13.899 11.4052 13.8946 11.3828 13.8946H10.7678C10.7454 13.8946 10.7232 13.899 10.7025 13.9076C10.6818 13.9162 10.663 13.9287 10.6472 13.9446C10.6314 13.9604 10.6188 13.9792 10.6103 13.9999C10.6017 14.0206 10.5973 14.0427 10.5973 14.0651V16.5815C10.5973 16.6039 10.6017 16.6261 10.6103 16.6467C10.6188 16.6674 10.6314 16.6862 10.6472 16.7021C10.663 16.7179 10.6818 16.7305 10.7025 16.739C10.7232 16.7476 10.7454 16.752 10.7678 16.752H11.3828C11.4052 16.752 11.4273 16.7476 11.448 16.739C11.4687 16.7305 11.4875 16.7179 11.5033 16.7021C11.5192 16.6862 11.5317 16.6674 11.5403 16.6467C11.5489 16.6261 11.5533 16.6039 11.5533 16.5815ZM12.6274 7.89634V7.47288C12.6274 7.42645 12.609 7.38193 12.5761 7.3491C12.5433 7.31627 12.4988 7.29782 12.4523 7.29782H6.52785C6.48142 7.29782 6.43689 7.31627 6.40406 7.3491C6.37123 7.38193 6.35278 7.42645 6.35278 7.47288V7.89634C6.35278 7.94277 6.37123 7.98729 6.40406 8.02013C6.43689 8.05296 6.48142 8.0714 6.52785 8.0714H12.4523C12.4753 8.07141 12.4981 8.06688 12.5193 8.05808C12.5406 8.04929 12.5599 8.03639 12.5761 8.02014C12.5924 8.00388 12.6053 7.98458 12.6141 7.96334C12.6229 7.94209 12.6274 7.91933 12.6274 7.89634ZM12.6274 12.9719V12.5484C12.6274 12.502 12.609 12.4574 12.5761 12.4246C12.5433 12.3918 12.4988 12.3733 12.4523 12.3733H6.52785C6.48142 12.3733 6.43689 12.3918 6.40406 12.4246C6.37123 12.4574 6.35278 12.502 6.35278 12.5484V12.9719C6.35278 13.0183 6.37123 13.0628 6.40406 13.0956C6.43689 13.1285 6.48142 13.1469 6.52785 13.1469H12.4523C12.4753 13.1469 12.4981 13.1424 12.5193 13.1336C12.5406 13.1248 12.5599 13.1119 12.5761 13.0956C12.5924 13.0794 12.6053 13.0601 12.6141 13.0388C12.6229 13.0176 12.6274 12.9948 12.6274 12.9719Z" fill="#BFBCAF"/>
<path d="M14.7849 21.1448H13.6634C13.6226 21.1448 13.5822 21.1367 13.5444 21.1211C13.5067 21.1055 13.4724 21.0826 13.4436 21.0537C13.4147 21.0248 13.3918 20.9906 13.3762 20.9528C13.3605 20.9151 13.3525 20.8747 13.3525 20.8339V16.2452C13.3525 16.2044 13.3605 16.1639 13.3762 16.1262C13.3918 16.0885 13.4147 16.0542 13.4436 16.0253C13.4724 15.9965 13.5067 15.9736 13.5444 15.9579C13.5822 15.9423 13.6226 15.9343 13.6634 15.9343H14.7849C14.8257 15.9343 14.8661 15.9423 14.9039 15.9579C14.9416 15.9736 14.9759 15.9965 15.0047 16.0253C15.0336 16.0542 15.0565 16.0885 15.0721 16.1262C15.0878 16.1639 15.0958 16.2044 15.0958 16.2452V20.8339C15.0958 20.8747 15.0878 20.9151 15.0721 20.9528C15.0565 20.9906 15.0336 21.0248 15.0047 21.0537C14.9759 21.0826 14.9416 21.1055 14.9039 21.1211C14.8661 21.1367 14.8257 21.1448 14.7849 21.1448ZM17.9864 20.8339V16.2453C17.9864 16.2044 17.9784 16.164 17.9627 16.1263C17.9471 16.0885 17.9242 16.0543 17.8953 16.0254C17.8665 15.9965 17.8322 15.9736 17.7945 15.958C17.7567 15.9424 17.7163 15.9343 17.6755 15.9343H16.554C16.5132 15.9343 16.4728 15.9424 16.435 15.958C16.3973 15.9736 16.363 15.9965 16.3342 16.0254C16.3053 16.0543 16.2824 16.0885 16.2668 16.1263C16.2511 16.164 16.2431 16.2044 16.2431 16.2453V20.8339C16.2431 20.8747 16.2511 20.9152 16.2668 20.9529C16.2824 20.9906 16.3053 21.0249 16.3342 21.0538C16.363 21.0827 16.3973 21.1056 16.435 21.1212C16.4728 21.1368 16.5132 21.1448 16.554 21.1448H17.6755C17.7163 21.1448 17.7567 21.1368 17.7945 21.1212C17.8322 21.1056 17.8665 21.0827 17.8953 21.0538C17.9242 21.0249 17.9471 20.9906 17.9627 20.9529C17.9784 20.9152 17.9864 20.8747 17.9864 20.8339ZM20.877 20.8339V16.2453C20.8771 16.2044 20.869 16.164 20.8534 16.1263C20.8378 16.0885 20.8149 16.0543 20.786 16.0254C20.7571 15.9965 20.7228 15.9736 20.6851 15.958C20.6474 15.9424 20.607 15.9343 20.5661 15.9343H19.4447C19.4039 15.9343 19.3634 15.9424 19.3257 15.958C19.288 15.9736 19.2537 15.9965 19.2248 16.0254C19.1959 16.0543 19.173 16.0885 19.1574 16.1263C19.1418 16.164 19.1338 16.2044 19.1338 16.2453V20.8339C19.1338 20.8747 19.1418 20.9152 19.1574 20.9529C19.173 20.9906 19.1959 21.0249 19.2248 21.0538C19.2537 21.0827 19.288 21.1056 19.3257 21.1212C19.3634 21.1368 19.4039 21.1448 19.4447 21.1448H20.5661C20.607 21.1448 20.6474 21.1368 20.6851 21.1212C20.7228 21.1056 20.7571 21.0827 20.786 21.0538C20.8149 21.0249 20.8378 20.9906 20.8534 20.9529C20.869 20.9152 20.8771 20.8747 20.877 20.8339ZM15.0958 30.0296V25.441C15.0958 25.4002 15.0878 25.3597 15.0721 25.322C15.0565 25.2843 15.0336 25.25 15.0047 25.2211C14.9759 25.1922 14.9416 25.1693 14.9039 25.1537C14.8661 25.1381 14.8257 25.1301 14.7849 25.1301H13.6634C13.6226 25.1301 13.5822 25.1381 13.5444 25.1537C13.5067 25.1693 13.4724 25.1922 13.4436 25.2211C13.4147 25.25 13.3918 25.2843 13.3762 25.322C13.3605 25.3597 13.3525 25.4002 13.3525 25.441V30.0296C13.3525 30.0705 13.3605 30.1109 13.3762 30.1486C13.3918 30.1864 13.4147 30.2206 13.4436 30.2495C13.4724 30.2784 13.5067 30.3013 13.5444 30.3169C13.5822 30.3325 13.6226 30.3406 13.6634 30.3406H14.7849C14.8257 30.3406 14.8661 30.3325 14.9039 30.3169C14.9416 30.3013 14.9759 30.2784 15.0047 30.2495C15.0336 30.2206 15.0565 30.1864 15.0721 30.1486C15.0878 30.1109 15.0958 30.0705 15.0958 30.0296ZM17.9864 30.0296V25.441C17.9864 25.4002 17.9784 25.3597 17.9627 25.322C17.9471 25.2843 17.9242 25.25 17.8953 25.2211C17.8665 25.1922 17.8322 25.1693 17.7945 25.1537C17.7567 25.1381 17.7163 25.1301 17.6755 25.1301H16.554C16.5132 25.1301 16.4728 25.1381 16.435 25.1537C16.3973 25.1693 16.363 25.1922 16.3342 25.2211C16.3053 25.25 16.2824 25.2843 16.2668 25.322C16.2511 25.3597 16.2431 25.4002 16.2431 25.441V30.0296C16.2431 30.0705 16.2511 30.1109 16.2668 30.1486C16.2824 30.1864 16.3053 30.2206 16.3342 30.2495C16.363 30.2784 16.3973 30.3013 16.435 30.3169C16.4728 30.3325 16.5132 30.3406 16.554 30.3406H17.6755C17.7163 30.3406 17.7567 30.3325 17.7945 30.3169C17.8322 30.3013 17.8665 30.2784 17.8953 30.2495C17.9242 30.2206 17.9471 30.1864 17.9627 30.1486C17.9784 30.1109 17.9864 30.0705 17.9864 30.0296ZM20.877 30.0296V25.441C20.8771 25.4002 20.869 25.3597 20.8534 25.322C20.8378 25.2843 20.8149 25.25 20.786 25.2211C20.7571 25.1922 20.7228 25.1693 20.6851 25.1537C20.6474 25.1381 20.607 25.1301 20.5661 25.1301H19.4447C19.4039 25.1301 19.3634 25.1381 19.3257 25.1537C19.288 25.1693 19.2537 25.1922 19.2248 25.2211C19.1959 25.25 19.173 25.2843 19.1574 25.322C19.1418 25.3597 19.1338 25.4002 19.1338 25.441V30.0296C19.1338 30.0705 19.1418 30.1109 19.1574 30.1486C19.173 30.1864 19.1959 30.2206 19.2248 30.2495C19.2537 30.2784 19.288 30.3013 19.3257 30.3169C19.3634 30.3325 19.4039 30.3406 19.4447 30.3406H20.5661C20.607 30.3406 20.6474 30.3325 20.6851 30.3169C20.7228 30.3013 20.7571 30.2784 20.786 30.2495C20.8149 30.2206 20.8378 30.1864 20.8534 30.1486C20.869 30.1109 20.8771 30.0705 20.877 30.0296ZM22.8358 14.192V13.4198C22.8358 13.3352 22.8021 13.254 22.7423 13.1941C22.6824 13.1342 22.6012 13.1006 22.5165 13.1006H11.713C11.6284 13.1006 11.5472 13.1342 11.4873 13.1941C11.4274 13.254 11.3938 13.3352 11.3938 13.4198V14.192C11.3938 14.2767 11.4274 14.3579 11.4873 14.4177C11.5472 14.4776 11.6284 14.5112 11.713 14.5112H22.5165C22.5584 14.5112 22.6 14.503 22.6387 14.4869C22.6774 14.4709 22.7126 14.4474 22.7423 14.4177C22.7719 14.3881 22.7954 14.3529 22.8115 14.3142C22.8275 14.2754 22.8358 14.2339 22.8358 14.192ZM22.8358 23.4473V22.6752C22.8358 22.5905 22.8021 22.5093 22.7423 22.4494C22.6824 22.3896 22.6012 22.3559 22.5165 22.3559H11.713C11.6284 22.3559 11.5472 22.3896 11.4873 22.4494C11.4274 22.5093 11.3938 22.5905 11.3938 22.6752V23.4473C11.3938 23.532 11.4274 23.6132 11.4873 23.6731C11.5472 23.7329 11.6284 23.7666 11.713 23.7666H22.5165C22.5584 23.7666 22.6 23.7583 22.6387 23.7423C22.6774 23.7263 22.7126 23.7027 22.7423 23.6731C22.7719 23.6435 22.7954 23.6083 22.8115 23.5695C22.8275 23.5308 22.8358 23.4893 22.8358 23.4473Z" fill="#2B3B47"/>
<path d="M3.71576 8.65736H3.71376C3.68741 8.65736 3.66214 8.64689 3.6435 8.62826C3.62487 8.60963 3.6144 8.58435 3.6144 8.558V8.22775C3.6144 8.20139 3.62487 8.17612 3.6435 8.15749C3.66214 8.13886 3.68741 8.12839 3.71376 8.12839H3.71576C3.74211 8.12839 3.76739 8.13886 3.78602 8.15749C3.80465 8.17612 3.81512 8.20139 3.81512 8.22775V8.558C3.81512 8.58435 3.80465 8.60962 3.78601 8.62826C3.76738 8.64689 3.74211 8.65736 3.71576 8.65736ZM2.74466 8.558V8.22775C2.74466 8.20139 2.7342 8.17612 2.71556 8.15749C2.69693 8.13886 2.67166 8.12839 2.64531 8.12839H2.6433C2.61695 8.12839 2.59168 8.13886 2.57305 8.15749C2.55441 8.17612 2.54395 8.20139 2.54395 8.22775V8.558C2.54395 8.58435 2.55441 8.60963 2.57305 8.62826C2.59168 8.64689 2.61695 8.65736 2.6433 8.65736H2.64531C2.67166 8.65736 2.69693 8.64689 2.71556 8.62826C2.73419 8.60962 2.74466 8.58435 2.74466 8.558Z" fill="#E2AF8D"/>
<path d="M7.3966 17.5377H7.39248C7.33829 17.5377 7.28632 17.5162 7.248 17.4779C7.20969 17.4395 7.18816 17.3876 7.18816 17.3334V16.6542C7.18816 16.6 7.20969 16.5481 7.248 16.5097C7.28632 16.4714 7.33829 16.4499 7.39248 16.4499H7.3966C7.45079 16.4499 7.50276 16.4714 7.54108 16.5097C7.5794 16.5481 7.60093 16.6 7.60093 16.6542V17.3334C7.60092 17.3876 7.57939 17.4395 7.54107 17.4778C7.50276 17.5162 7.45079 17.5377 7.3966 17.5377ZM5.39958 17.3334V16.6542C5.39958 16.6 5.37806 16.5481 5.33974 16.5097C5.30142 16.4714 5.24945 16.4499 5.19526 16.4499H5.19114C5.13695 16.4499 5.08498 16.4714 5.04666 16.5097C5.00834 16.5481 4.98682 16.6 4.98682 16.6542V17.3334C4.98682 17.3876 5.00834 17.4395 5.04666 17.4779C5.08498 17.5162 5.13695 17.5377 5.19114 17.5377H5.19526C5.24945 17.5377 5.30141 17.5162 5.33973 17.4778C5.37805 17.4395 5.39958 17.3876 5.39958 17.3334Z" fill="#BFBCAF"/>
<path d="M13.2976 31.7733H13.2901C13.1913 31.7733 13.0965 31.734 13.0267 31.6641C12.9568 31.5943 12.9175 31.4995 12.9175 31.4007V30.1622C12.9175 30.0634 12.9568 29.9686 13.0267 29.8987C13.0965 29.8289 13.1913 29.7896 13.2901 29.7896H13.2976C13.3965 29.7896 13.4912 29.8289 13.5611 29.8987C13.631 29.9686 13.6702 30.0634 13.6702 30.1622V31.4007C13.6702 31.4995 13.631 31.5942 13.5611 31.6641C13.4912 31.734 13.3964 31.7732 13.2976 31.7733ZM9.65602 31.4007V30.1622C9.65602 30.0634 9.61676 29.9686 9.54689 29.8987C9.47701 29.8289 9.38224 29.7896 9.28342 29.7896H9.27591C9.1771 29.7896 9.08233 29.8289 9.01245 29.8987C8.94258 29.9686 8.90332 30.0634 8.90332 30.1622V31.4007C8.90332 31.4995 8.94258 31.5943 9.01245 31.6641C9.08233 31.734 9.1771 31.7733 9.27591 31.7733H9.28342C9.38223 31.7732 9.477 31.734 9.54687 31.6641C9.61674 31.5942 9.656 31.4995 9.65602 31.4007Z" fill="#E2AF8D"/>
<path d="M2.55225 7.77109H3.81507V8.25615H2.55225V7.77109Z" fill="#E5E4DF"/>
<path d="M5.00415 15.7151H7.60108V16.7126H5.00415V15.7151Z" fill="#E5E4DF"/>
<path d="M8.93457 28.4497H13.6701V30.2687H8.93457V28.4497Z" fill="#E5E4DF"/>
<path d="M3.33799 8.25984L3.82189 7.77906V8.05351L3.61242 8.25984H3.33799ZM2.81795 8.25984H3.0924L3.57744 7.76346H3.30299L2.81795 8.25984ZM2.78295 7.76346L2.54785 8.0018V8.25984H2.57236L3.05742 7.76346H2.78295Z" fill="#FF473E"/>
<path d="M6.61999 16.7201L7.61511 15.7315V16.2958L7.18435 16.7201H6.61999ZM5.55056 16.7201H6.11494L7.11242 15.6994H6.54803L5.55056 16.7201ZM5.47859 15.6994L4.99512 16.1895V16.7201H5.04551L6.04301 15.6994H5.47859Z" fill="#BFBCAF"/>
<path d="M11.881 30.2825L13.6956 28.4796V29.5087L12.9101 30.2825H11.881ZM9.93083 30.2825H10.96L12.7789 28.4211H11.7497L9.93083 30.2825ZM9.7996 28.4211L8.91797 29.3148V30.2825H9.00986L10.8288 28.4211H9.7996Z" fill="#FF473E"/>
<path d="M8.6237 6.40332C8.6236 6.4018 8.62534 6.40026 8.62504 6.39876C8.62478 6.39743 8.62521 6.39619 8.62481 6.39492C8.62451 6.39396 8.62476 6.39298 8.62436 6.39204C8.62384 6.3907 8.62322 6.38939 8.62253 6.38813C8.6221 6.38737 8.62188 6.38658 8.6214 6.38585C8.61878 6.38192 8.61542 6.37854 8.61151 6.37589C8.6106 6.37528 8.60964 6.37486 8.60869 6.37435C8.60758 6.37375 8.60654 6.37308 8.60538 6.3726C8.60418 6.3721 8.60294 6.3718 8.60168 6.37144C8.60067 6.37114 8.59973 6.37263 8.59868 6.37243C8.59637 6.37197 8.59402 6.37359 8.59165 6.37359H7.86037C7.85802 6.37359 7.85565 6.37197 7.85334 6.37243C7.8523 6.37263 7.85135 6.37208 7.85034 6.37238C7.8491 6.37275 7.84784 6.37256 7.84664 6.37306C7.84546 6.37354 7.8444 6.37397 7.84331 6.37458C7.84237 6.3751 7.84138 6.37539 7.84047 6.37601C7.83653 6.37863 7.83315 6.382 7.8305 6.38592C7.83002 6.38664 7.82969 6.38741 7.82926 6.38817C7.82854 6.38944 7.82777 6.39068 7.82721 6.39207C7.82683 6.39301 7.82662 6.39397 7.82632 6.39493C7.82592 6.39621 7.82544 6.39743 7.82518 6.39877C7.82488 6.40028 7.82564 6.40182 7.82552 6.40334C7.82547 6.40415 7.8261 6.40491 7.8261 6.40574V7.10161H7.12906C7.1267 7.10152 7.12434 7.10168 7.12202 7.10209C7.12098 7.10229 7.12004 7.10257 7.11903 7.10287C7.11779 7.10323 7.11653 7.10346 7.11532 7.10396C7.11415 7.10444 7.11309 7.10509 7.112 7.10568C7.11105 7.10619 7.11006 7.10661 7.10915 7.1072C7.10521 7.10984 7.10183 7.11323 7.09919 7.11716C7.09871 7.11789 7.09838 7.11869 7.09795 7.11945C7.09722 7.12072 7.09646 7.12198 7.0959 7.12335C7.09552 7.1243 7.0953 7.12527 7.095 7.12623C7.09461 7.12751 7.09413 7.12875 7.09386 7.13007C7.09356 7.13158 7.09596 7.13311 7.09586 7.13464C7.09581 7.13545 7.09808 7.13621 7.09808 7.13704V7.82963H6.39776C6.39541 7.82963 6.39304 7.83127 6.39073 7.83173C6.38968 7.83193 6.38874 7.83302 6.38773 7.83332C6.38649 7.83369 6.38523 7.83433 6.38402 7.83483C6.38285 7.83531 6.38179 7.83615 6.3807 7.83676C6.37976 7.83728 6.37876 7.83779 6.37785 7.83839C6.37391 7.84104 6.37053 7.84444 6.36789 7.8484C6.36741 7.84912 6.36708 7.84994 6.36665 7.8507C6.36592 7.85197 6.36516 7.85324 6.3646 7.85462C6.36422 7.85556 6.364 7.85654 6.36371 7.8575C6.36331 7.85877 6.36283 7.86001 6.36256 7.86133C6.36227 7.86284 6.3663 7.86438 6.3662 7.8659C6.36616 7.86671 6.37006 7.86747 6.37006 7.8683V8.5996C6.37006 8.60043 6.36616 8.60119 6.3662 8.602C6.3663 8.60352 6.36432 8.60506 6.36462 8.60656C6.36488 8.6079 6.36434 8.60915 6.36473 8.61042C6.36503 8.61138 6.36473 8.61236 6.36511 8.61328C6.36568 8.61466 6.36619 8.61591 6.36692 8.6172C6.36735 8.61795 6.36753 8.61874 6.36802 8.61947C6.37066 8.62341 6.37398 8.6268 6.37792 8.62945C6.37881 8.63004 6.37974 8.63044 6.38067 8.63095C6.38179 8.63157 6.38285 8.63224 6.38404 8.63274C6.38523 8.63324 6.38646 8.63352 6.38766 8.63387C6.38869 8.63416 6.38967 8.63701 6.39073 8.63721C6.39304 8.63767 6.39539 8.64035 6.39774 8.64035H8.59162C8.59397 8.64035 8.59632 8.63767 8.59863 8.63721C8.59969 8.63699 8.60067 8.63539 8.60169 8.63507C8.60292 8.63471 8.60414 8.63382 8.60533 8.63334C8.60653 8.63284 8.6076 8.63186 8.60873 8.63123C8.60966 8.63073 8.61059 8.63018 8.61151 8.62958C8.61544 8.62695 8.61884 8.62347 8.62147 8.61954C8.62195 8.61881 8.62228 8.61798 8.62269 8.61724C8.62342 8.61595 8.62418 8.61467 8.62476 8.6133C8.62514 8.61237 8.62534 8.61138 8.62565 8.61042C8.62605 8.60915 8.62653 8.6079 8.62679 8.60656C8.62709 8.60506 8.62353 8.60352 8.62365 8.602C8.6237 8.60119 8.62028 8.60043 8.62028 8.5996V6.40572C8.62033 6.40491 8.62375 6.40413 8.6237 6.40332ZM6.43626 7.95494L6.71529 8.23397L6.43626 8.513V7.95494ZM7.54709 8.23397L7.82612 7.95494V8.513L7.54709 8.23397ZM6.81907 8.23397L7.0981 7.95494V8.513L6.81907 8.23397ZM7.8923 7.7817V7.22365L8.17132 7.50267L7.8923 7.7817ZM8.22602 7.55062L8.50503 7.82963H7.94699L8.22602 7.55062ZM7.947 7.1678H8.50505L8.22604 7.44681L7.947 7.1678ZM7.947 7.10161L8.22602 6.82258L8.50503 7.10161H7.947ZM7.82612 7.7817L7.54709 7.50268L7.82612 7.22365V7.7817ZM7.77375 7.82963H7.21571L7.49474 7.55062L7.77375 7.82963ZM7.44331 8.23397L7.16428 8.513V7.95494L7.44331 8.23397ZM7.21569 7.91236H7.77375L7.49472 8.19139L7.21569 7.91236ZM8.17132 8.23397L7.8923 8.513V7.95495L8.17132 8.23397ZM7.947 7.91236H8.50505L8.22604 8.19139L7.947 7.91236ZM8.27513 7.50267L8.55414 7.22365V7.7817L8.27513 7.50267ZM8.27513 6.77139L8.55414 6.49236V7.0504L8.27513 6.77139ZM8.22602 6.7188L7.947 6.43977H8.50505L8.22602 6.7188ZM8.17132 6.77139L7.8923 7.0504V6.49236L8.17132 6.77139ZM7.49472 7.44681L7.21569 7.1678H7.77374L7.49472 7.44681ZM7.44331 7.50267L7.16428 7.7817V7.22365L7.44331 7.50267ZM6.76342 8.19139L6.48439 7.91236H7.04245L6.76342 8.19139ZM6.76342 8.27862L7.04245 8.55765H6.48439L6.76342 8.27862ZM7.49472 8.27862L7.77375 8.55765H7.21569L7.49472 8.27862ZM8.22602 8.27862L8.50503 8.55765H7.94699L8.22602 8.27862ZM8.27513 8.23397L8.55414 7.95494V8.51298L8.27513 8.23397Z" fill="#D8D8D8"/>
<path d="M17.4895 12.9023C17.4893 12.8992 17.4929 12.8961 17.4923 12.893C17.4918 12.8902 17.4926 12.8877 17.4918 12.8851C17.4912 12.8831 17.4917 12.8811 17.4909 12.8791C17.4898 12.8764 17.4886 12.8737 17.4871 12.8711C17.4862 12.8695 17.4858 12.8679 17.4848 12.8664C17.4794 12.8583 17.4725 12.8514 17.4645 12.8459C17.4626 12.8447 17.4606 12.8438 17.4587 12.8428C17.4564 12.8415 17.4543 12.8402 17.4519 12.8392C17.4494 12.8381 17.4468 12.8375 17.4443 12.8368C17.4422 12.8362 17.4402 12.8392 17.4381 12.8388C17.4333 12.8379 17.4285 12.8412 17.4236 12.8412H15.9198C15.915 12.8412 15.9101 12.8379 15.9053 12.8388C15.9032 12.8392 15.9013 12.8381 15.8992 12.8387C15.8966 12.8395 15.894 12.8391 15.8916 12.8401C15.8891 12.8411 15.887 12.842 15.8847 12.8432C15.8828 12.8443 15.8807 12.8449 15.8789 12.8462C15.8708 12.8516 15.8638 12.8585 15.8584 12.8666C15.8574 12.8681 15.8567 12.8696 15.8558 12.8712C15.8543 12.8738 15.8528 12.8764 15.8516 12.8792C15.8508 12.8812 15.8504 12.8831 15.8498 12.8851C15.849 12.8877 15.848 12.8902 15.8474 12.893C15.8468 12.8961 15.8484 12.8993 15.8481 12.9024C15.848 12.9041 15.8493 12.9056 15.8493 12.9073V14.3383H14.4159C14.411 14.3382 14.4062 14.3385 14.4014 14.3393C14.3993 14.3397 14.3973 14.3403 14.3953 14.3409C14.3927 14.3417 14.3901 14.3422 14.3876 14.3432C14.3852 14.3442 14.383 14.3455 14.3808 14.3467C14.3789 14.3478 14.3768 14.3486 14.375 14.3498C14.3669 14.3553 14.3599 14.3622 14.3545 14.3703C14.3535 14.3718 14.3528 14.3735 14.3519 14.375C14.3504 14.3776 14.3489 14.3802 14.3477 14.3831C14.3469 14.385 14.3465 14.387 14.3459 14.389C14.345 14.3916 14.3441 14.3941 14.3435 14.3969C14.3429 14.4 14.3478 14.4031 14.3476 14.4063C14.3475 14.4079 14.3522 14.4095 14.3522 14.4112V15.8355H12.912C12.9072 15.8355 12.9023 15.8389 12.8975 15.8398C12.8954 15.8402 12.8935 15.8425 12.8914 15.8431C12.8888 15.8438 12.8862 15.8452 12.8838 15.8462C12.8813 15.8472 12.8792 15.8489 12.8769 15.8502C12.875 15.8512 12.8729 15.8523 12.8711 15.8535C12.863 15.8589 12.856 15.8659 12.8506 15.8741C12.8496 15.8756 12.8489 15.8772 12.848 15.8788C12.8465 15.8814 12.845 15.884 12.8438 15.8869C12.843 15.8888 12.8426 15.8908 12.842 15.8928C12.8412 15.8954 12.8402 15.898 12.8396 15.9007C12.839 15.9038 12.8473 15.9069 12.8471 15.9101C12.847 15.9117 12.855 15.9133 12.855 15.915V17.4189C12.855 17.4206 12.847 17.4222 12.8471 17.4238C12.8473 17.4269 12.8432 17.4301 12.8439 17.4332C12.8444 17.436 12.8433 17.4385 12.8441 17.4411C12.8447 17.4431 12.8441 17.4451 12.8449 17.447C12.846 17.4498 12.8471 17.4524 12.8486 17.4551C12.8495 17.4566 12.8498 17.4583 12.8509 17.4598C12.8563 17.4678 12.8631 17.4748 12.8712 17.4803C12.873 17.4815 12.875 17.4823 12.8769 17.4834C12.8792 17.4846 12.8813 17.486 12.8838 17.487C12.8862 17.4881 12.8888 17.4886 12.8912 17.4894C12.8934 17.49 12.8954 17.4958 12.8975 17.4962C12.9023 17.4972 12.9071 17.5027 12.912 17.5027H17.4236C17.4284 17.5027 17.4332 17.4972 17.438 17.4962C17.4402 17.4958 17.4422 17.4925 17.4443 17.4918C17.4468 17.4911 17.4493 17.4893 17.4518 17.4883C17.4542 17.4872 17.4564 17.4852 17.4588 17.4839C17.4607 17.4829 17.4626 17.4818 17.4645 17.4805C17.4726 17.4751 17.4795 17.468 17.485 17.4599C17.4859 17.4584 17.4866 17.4567 17.4875 17.4552C17.489 17.4525 17.4905 17.4499 17.4917 17.4471C17.4925 17.4452 17.4929 17.4431 17.4936 17.4411C17.4944 17.4385 17.4954 17.436 17.4959 17.4332C17.4965 17.4301 17.4892 17.4269 17.4894 17.4238C17.4895 17.4222 17.4825 17.4206 17.4825 17.4189V12.9073C17.4826 12.9056 17.4897 12.904 17.4895 12.9023ZM12.9912 16.0932L13.565 16.667L12.9912 17.2408V16.0932ZM15.2755 16.667L15.8494 16.0932V17.2408L15.2755 16.667ZM13.7784 16.667L14.3522 16.0932V17.2408L13.7784 16.667ZM15.9855 15.7369V14.5893L16.5592 15.1631L15.9855 15.7369ZM16.6717 15.2617L17.2455 15.8355H16.0979L16.6717 15.2617ZM16.098 14.4745H17.2455L16.6718 15.0482L16.098 14.4745ZM16.098 14.3383L16.6717 13.7645L17.2455 14.3383H16.098ZM15.8494 15.7369L15.2755 15.1631L15.8494 14.5893V15.7369ZM15.7417 15.8355H14.5941L15.1679 15.2617L15.7417 15.8355ZM15.0621 16.667L14.4883 17.2408V16.0932L15.0621 16.667ZM14.594 16.0056H15.7417L15.1679 16.5794L14.594 16.0056ZM16.5592 16.667L15.9855 17.2408V16.0932L16.5592 16.667ZM16.098 16.0056H17.2455L16.6718 16.5794L16.098 16.0056ZM16.7727 15.1631L17.3465 14.5893V15.7369L16.7727 15.1631ZM16.7727 13.6593L17.3465 13.0854V14.233L16.7727 13.6593ZM16.6717 13.5511L16.098 12.9773H17.2455L16.6717 13.5511ZM16.5592 13.6593L15.9855 14.233V13.0854L16.5592 13.6593ZM15.1679 15.0482L14.594 14.4745H15.7416L15.1679 15.0482ZM15.0621 15.1631L14.4883 15.7369V14.5893L15.0621 15.1631ZM13.664 16.5794L13.0902 16.0056H14.2378L13.664 16.5794ZM13.664 16.7588L14.2378 17.3326H13.0902L13.664 16.7588ZM15.1679 16.7588L15.7417 17.3326H14.594L15.1679 16.7588ZM16.6717 16.7588L17.2455 17.3326H16.0979L16.6717 16.7588ZM16.7727 16.667L17.3465 16.0932V17.2408L16.7727 16.667Z" fill="white"/>
<path d="M31.7022 23.3206C31.7018 23.3149 31.7084 23.3091 31.7072 23.3035C31.7063 23.2985 31.7079 23.2939 31.7064 23.2891C31.7053 23.2855 31.7062 23.2818 31.7047 23.2783C31.7027 23.2733 31.7004 23.2684 31.6978 23.2637C31.6962 23.2608 31.6954 23.2578 31.6936 23.2551C31.6838 23.2403 31.6712 23.2277 31.6565 23.2177C31.6531 23.2154 31.6495 23.2139 31.6459 23.212C31.6418 23.2097 31.6379 23.2072 31.6335 23.2054C31.629 23.2035 31.6244 23.2024 31.6196 23.201C31.6158 23.1999 31.6123 23.2055 31.6084 23.2048C31.5997 23.203 31.5909 23.2091 31.582 23.2091H28.8397C28.8309 23.2091 28.822 23.203 28.8134 23.2048C28.8095 23.2055 28.8059 23.2035 28.8021 23.2046C28.7975 23.2059 28.7928 23.2053 28.7882 23.2071C28.7838 23.2089 28.7799 23.2105 28.7758 23.2128C28.7722 23.2148 28.7685 23.2159 28.7651 23.2182C28.7503 23.228 28.7377 23.2406 28.7277 23.2553C28.7259 23.2581 28.7247 23.2609 28.7231 23.2638C28.7204 23.2686 28.7175 23.2732 28.7154 23.2784C28.714 23.282 28.7132 23.2856 28.712 23.2892C28.7105 23.2939 28.7087 23.2985 28.7078 23.3035C28.7066 23.3092 28.7095 23.315 28.7091 23.3207C28.7089 23.3237 28.7112 23.3266 28.7112 23.3297V25.9392H26.0973C26.0885 25.9389 26.0796 25.9395 26.0709 25.941C26.067 25.9417 26.0635 25.9428 26.0597 25.9439C26.055 25.9453 26.0503 25.9461 26.0458 25.948C26.0414 25.9498 26.0374 25.9522 26.0333 25.9545C26.0298 25.9564 26.0261 25.9579 26.0227 25.9602C26.0079 25.9701 25.9952 25.9828 25.9853 25.9975C25.9835 26.0002 25.9823 26.0032 25.9807 26.0061C25.9779 26.0109 25.9751 26.0156 25.973 26.0207C25.9715 26.0243 25.9707 26.0279 25.9696 26.0315C25.9681 26.0363 25.9663 26.041 25.9653 26.0459C25.9642 26.0516 25.9732 26.0573 25.9728 26.063C25.9726 26.0661 25.9811 26.0689 25.9811 26.072V28.6693H23.3549C23.3461 28.6693 23.3373 28.6754 23.3286 28.6772C23.3247 28.6779 23.3211 28.682 23.3173 28.6831C23.3127 28.6845 23.308 28.6869 23.3034 28.6888C23.299 28.6906 23.2951 28.6937 23.291 28.696C23.2874 28.6979 23.2837 28.6999 23.2803 28.7021C23.2655 28.7121 23.2528 28.7248 23.2429 28.7396C23.2411 28.7424 23.2399 28.7454 23.2383 28.7483C23.2356 28.753 23.2327 28.7578 23.2306 28.763C23.2292 28.7665 23.2284 28.7702 23.2272 28.7738C23.2258 28.7785 23.224 28.7832 23.223 28.7882C23.2218 28.7938 23.237 28.7996 23.2366 28.8053C23.2364 28.8083 23.2511 28.8112 23.2511 28.8143V31.5566C23.2511 31.5597 23.2364 31.5626 23.2366 31.5656C23.237 31.5714 23.2295 31.5771 23.2307 31.5828C23.2316 31.5878 23.2296 31.5924 23.2311 31.5972C23.2322 31.6008 23.2311 31.6045 23.2325 31.608C23.2346 31.6131 23.2365 31.6178 23.2393 31.6227C23.2409 31.6255 23.2416 31.6284 23.2434 31.6312C23.2533 31.6459 23.2658 31.6587 23.2805 31.6686C23.2839 31.6708 23.2874 31.6723 23.2908 31.6742C23.2951 31.6765 23.299 31.6791 23.3035 31.6809C23.308 31.6828 23.3126 31.6838 23.3171 31.6851C23.3209 31.6863 23.3246 31.6969 23.3286 31.6977C23.3373 31.6994 23.3461 31.7095 23.3549 31.7095H31.5819C31.5907 31.7095 31.5995 31.6994 31.6082 31.6977C31.6122 31.6969 31.6159 31.6909 31.6197 31.6897C31.6243 31.6883 31.6289 31.685 31.6333 31.6832C31.6378 31.6813 31.6418 31.6776 31.6461 31.6753C31.6496 31.6734 31.6531 31.6713 31.6565 31.6691C31.6713 31.6592 31.684 31.6462 31.6938 31.6314C31.6956 31.6287 31.6969 31.6256 31.6984 31.6228C31.7012 31.618 31.704 31.6132 31.7062 31.608C31.7076 31.6045 31.7084 31.6008 31.7095 31.5972C31.711 31.5924 31.7128 31.5878 31.7138 31.5828C31.7149 31.5771 31.7016 31.5714 31.702 31.5656C31.7022 31.5626 31.6894 31.5597 31.6894 31.5566V23.3296C31.6896 23.3266 31.7024 23.3237 31.7022 23.3206ZM23.4993 29.1392L24.5457 30.1855L23.4993 31.2319V29.1392ZM27.6649 30.1855L28.7113 29.1392V31.2319L27.6649 30.1855ZM24.9348 30.1855L25.9812 29.1392V31.2319L24.9348 30.1855ZM28.9595 28.4895V26.3969L30.0058 27.4432L28.9595 28.4895ZM30.2109 27.623L31.2572 28.6693H29.1645L30.2109 27.623ZM29.1646 26.1874H31.2573L30.211 27.2337L29.1646 26.1874ZM29.1646 25.9392L30.2109 24.8928L31.2572 25.9392H29.1646ZM28.7113 28.4895L27.6649 27.4432L28.7113 26.3969V28.4895ZM28.5149 28.6693H26.4222L27.4686 27.623L28.5149 28.6693ZM27.2758 30.1855L26.2294 31.2319V29.1392L27.2758 30.1855ZM26.4222 28.9795H28.5149L27.4685 30.0259L26.4222 28.9795ZM30.0058 30.1855L28.9595 31.2319V29.1392L30.0058 30.1855ZM29.1646 28.9795H31.2573L30.211 30.0259L29.1646 28.9795ZM30.3951 27.4432L31.4414 26.3969V28.4895L30.3951 27.4432ZM30.3951 24.7009L31.4414 23.6545V25.7472L30.3951 24.7009ZM30.2109 24.5037L29.1646 23.4573H31.2573L30.2109 24.5037ZM30.0058 24.7009L28.9595 25.7472V23.6545L30.0058 24.7009ZM27.4685 27.2337L26.4222 26.1874H28.5149L27.4685 27.2337ZM27.2758 27.4432L26.2294 28.4895V26.3969L27.2758 27.4432ZM24.7262 30.0259L23.6798 28.9795H25.7725L24.7262 30.0259ZM24.7262 30.353L25.7725 31.3994H23.6798L24.7262 30.353ZM27.4685 30.353L28.5149 31.3994H26.4222L27.4685 30.353ZM30.2109 30.353L31.2572 31.3994H29.1645L30.2109 30.353ZM30.3951 30.1855L31.4414 29.1392V31.2318L30.3951 30.1855Z" fill="#D8D8D8"/>
<path d="M6.03108 1.43572C6.0273 1.43571 6.02354 1.43525 6.01988 1.43433L1.79376 0.368075L0.497864 1.35006C0.488195 1.35711 0.476146 1.36008 0.464307 1.35834C0.452469 1.3566 0.441787 1.35028 0.434561 1.34074C0.427335 1.3312 0.42414 1.31921 0.425666 1.30734C0.427191 1.29547 0.433313 1.28468 0.442717 1.27727L1.77356 0.268799L6.0422 1.34577C6.05299 1.3485 6.06241 1.35507 6.0687 1.36426C6.07499 1.37344 6.0777 1.38461 6.07634 1.39565C6.07497 1.4067 6.06962 1.41687 6.06128 1.42425C6.05295 1.43162 6.04221 1.4357 6.03108 1.43572Z" fill="#D7F4F7"/>
<path d="M12.1582 2.6867C12.1504 2.68669 12.1427 2.68573 12.1351 2.68384L3.44431 0.491143L0.779366 2.51055C0.759482 2.52505 0.734703 2.53116 0.710358 2.52758C0.686012 2.52399 0.664047 2.51099 0.649186 2.49138C0.634325 2.47177 0.627757 2.4471 0.630893 2.4227C0.63403 2.39829 0.646621 2.37609 0.665958 2.36087L3.40277 0.286987L12.181 2.50174C12.2032 2.50734 12.2226 2.52086 12.2355 2.53975C12.2485 2.55863 12.254 2.58159 12.2512 2.60431C12.2484 2.62703 12.2374 2.64794 12.2203 2.66311C12.2031 2.67828 12.181 2.68667 12.1582 2.6867Z" fill="#D7F4F7"/>
<path d="M21.9802 4.69208C21.966 4.69206 21.9519 4.69031 21.9382 4.68687L6.09024 0.688415L1.23064 4.37086C1.19438 4.3973 1.14919 4.40845 1.1048 4.40191C1.0604 4.39537 1.02035 4.37167 0.993251 4.33591C0.966152 4.30014 0.954174 4.25517 0.959893 4.21066C0.965613 4.16615 0.988573 4.12567 1.02383 4.09791L6.01449 0.316132L22.0219 4.35479C22.0624 4.36501 22.0977 4.38966 22.1213 4.4241C22.1448 4.45855 22.155 4.50041 22.1499 4.54184C22.1448 4.58326 22.1247 4.62139 22.0935 4.64906C22.0622 4.67672 22.0219 4.69202 21.9802 4.69208Z" fill="#D7F4F7"/>
<path d="M1.7261 0.31842H1.78816C1.80403 0.318416 1.81974 0.321538 1.8344 0.327608C1.84906 0.333678 1.86238 0.342578 1.8736 0.353798C1.88482 0.365018 1.89372 0.378338 1.89979 0.392999C1.90586 0.407659 1.90898 0.423372 1.90898 0.439239V0.952891H1.45239L1.61001 0.405783C1.61726 0.380598 1.63251 0.358456 1.65345 0.342696C1.67439 0.326937 1.69989 0.318417 1.7261 0.31842Z" fill="#BFBCAF"/>
<path d="M3.30578 0.389038H3.43341C3.46604 0.389029 3.49835 0.39545 3.5285 0.407933C3.55865 0.420416 3.58604 0.438716 3.60911 0.46179C3.63219 0.484863 3.65049 0.512256 3.66297 0.542404C3.67545 0.572553 3.68187 0.604865 3.68187 0.637496V1.6938H2.74292L3.06705 0.568695C3.08196 0.516904 3.11332 0.471369 3.15638 0.438961C3.19945 0.406553 3.25188 0.38903 3.30578 0.389038Z" fill="#BFBCAF"/>
<path d="M5.83718 0.502258H6.06992C6.12942 0.502242 6.18834 0.51395 6.24332 0.536713C6.29829 0.559476 6.34825 0.592848 6.39032 0.634923C6.4324 0.676998 6.46577 0.72695 6.48853 0.781926C6.51129 0.836903 6.523 0.895825 6.52299 0.955328V2.88152H4.81079L5.40185 0.829868C5.42905 0.735425 5.48622 0.652391 5.56475 0.593294C5.64328 0.534197 5.7389 0.502244 5.83718 0.502258Z" fill="#BFBCAF"/>
<path d="M1.80111 8.44611H1.29563C1.28086 8.44611 1.26622 8.4432 1.25257 8.43755C1.23892 8.43189 1.22651 8.4236 1.21606 8.41315C1.20561 8.4027 1.19732 8.3903 1.19167 8.37664C1.18601 8.36299 1.1831 8.34836 1.18311 8.33358V0.947368C1.1831 0.93259 1.18601 0.917956 1.19167 0.904302C1.19732 0.890649 1.20561 0.878243 1.21606 0.867793C1.22651 0.857343 1.23892 0.849055 1.25257 0.8434C1.26622 0.837746 1.28086 0.834837 1.29563 0.834839H1.80111C1.81589 0.834837 1.83053 0.837746 1.84418 0.8434C1.85783 0.849055 1.87024 0.857343 1.88069 0.867793C1.89114 0.878243 1.89943 0.890649 1.90508 0.904302C1.91074 0.917956 1.91364 0.93259 1.91364 0.947368V8.33356C1.91365 8.34834 1.91074 8.36298 1.90509 8.37663C1.89943 8.39029 1.89114 8.4027 1.88069 8.41315C1.87024 8.4236 1.85784 8.43189 1.84418 8.43755C1.83053 8.4432 1.81589 8.44611 1.80111 8.44611Z" fill="#D1CFC3"/>
<path d="M3.45938 17.1033H2.41989C2.3895 17.1033 2.3594 17.0973 2.33132 17.0857C2.30325 17.074 2.27773 17.057 2.25625 17.0355C2.23476 17.014 2.21771 16.9885 2.20608 16.9604C2.19445 16.9323 2.18847 16.9022 2.18848 16.8718V1.68246C2.18847 1.65207 2.19445 1.62198 2.20608 1.5939C2.21771 1.56582 2.23476 1.54031 2.25625 1.51882C2.27773 1.49733 2.30325 1.48028 2.33132 1.46866C2.3594 1.45703 2.3895 1.45105 2.41989 1.45105H3.45938C3.48977 1.45105 3.51986 1.45703 3.54794 1.46866C3.57602 1.48028 3.60153 1.49733 3.62302 1.51882C3.64451 1.54031 3.66156 1.56582 3.67318 1.5939C3.68481 1.62198 3.69079 1.65207 3.69079 1.68246V16.8718C3.6908 16.9022 3.68482 16.9323 3.67319 16.9604C3.66157 16.9885 3.64452 17.014 3.62303 17.0355C3.60154 17.057 3.57603 17.074 3.54795 17.0856C3.51987 17.0973 3.48977 17.1033 3.45938 17.1033Z" fill="white"/>
<path d="M6.11807 30.9811H4.22252C4.1671 30.9811 4.11223 30.9702 4.06102 30.949C4.00982 30.9278 3.9633 30.8967 3.92412 30.8575C3.88493 30.8183 3.85385 30.7718 3.83264 30.7206C3.81144 30.6694 3.80053 30.6145 3.80054 30.5591V2.8608C3.80053 2.80538 3.81144 2.7505 3.83264 2.6993C3.85385 2.6481 3.88493 2.60158 3.92412 2.56239C3.9633 2.5232 4.00982 2.49212 4.06102 2.47092C4.11223 2.44971 4.1671 2.4388 4.22252 2.43881H6.11807C6.17348 2.4388 6.22836 2.44971 6.27956 2.47092C6.33076 2.49212 6.37729 2.5232 6.41647 2.56239C6.45566 2.60158 6.48674 2.6481 6.50794 2.6993C6.52915 2.7505 6.54006 2.80538 6.54005 2.8608V30.559C6.54007 30.6144 6.52916 30.6693 6.50796 30.7205C6.48676 30.7717 6.45568 30.8183 6.41649 30.8575C6.37731 30.8967 6.33078 30.9278 6.27958 30.949C6.22837 30.9702 6.17349 30.9811 6.11807 30.9811Z" fill="#D1CFC3"/>
<path d="M2.05852 8.189H1.03864C1.02431 8.189 1.01057 8.19469 1.00044 8.20482C0.990311 8.21495 0.984619 8.22869 0.984619 8.24302V8.5624C0.984619 8.57673 0.990311 8.59047 1.00044 8.6006C1.01057 8.61074 1.02431 8.61643 1.03864 8.61643H2.05852C2.07284 8.61643 2.08659 8.61074 2.09672 8.6006C2.10685 8.59047 2.11254 8.57673 2.11254 8.5624V8.24302C2.11254 8.22869 2.10685 8.21495 2.09672 8.20482C2.08659 8.19469 2.07284 8.189 2.05852 8.189Z" fill="#BFBCAF"/>
<path d="M3.98845 16.5745H1.89112C1.86166 16.5745 1.8334 16.5862 1.81257 16.607C1.79173 16.6279 1.78003 16.6561 1.78003 16.6856V17.3424C1.78003 17.3719 1.79173 17.4001 1.81257 17.4209C1.8334 17.4418 1.86166 17.4535 1.89112 17.4535H3.98845C4.01791 17.4535 4.04617 17.4418 4.067 17.4209C4.08784 17.4001 4.09954 17.3719 4.09954 17.3424V16.6856C4.09954 16.6561 4.08784 16.6279 4.067 16.607C4.04617 16.5862 4.01791 16.5745 3.98845 16.5745Z" fill="#BFBCAF"/>
<path d="M7.08254 30.0169H3.258C3.20428 30.0169 3.15275 30.0383 3.11476 30.0762C3.07676 30.1142 3.05542 30.1658 3.05542 30.2195V31.4172C3.05542 31.4709 3.07676 31.5224 3.11476 31.5604C3.15275 31.5984 3.20428 31.6198 3.258 31.6198H7.08254C7.13627 31.6198 7.18779 31.5984 7.22579 31.5604C7.26378 31.5224 7.28512 31.4709 7.28512 31.4172V30.2195C7.28512 30.1658 7.26378 30.1142 7.22579 30.0762C7.18779 30.0383 7.13627 30.0169 7.08254 30.0169Z" fill="#BFBCAF"/>
<path d="M6.07485 1.93797H1.0944C1.08489 1.93797 1.07545 1.93626 1.06654 1.93292L0.400434 1.68334C0.38529 1.67767 0.372239 1.66751 0.363026 1.65421C0.353813 1.64092 0.348877 1.62514 0.348877 1.60897V1.34627C0.348877 1.3252 0.357244 1.305 0.372139 1.29011C0.387033 1.27521 0.407234 1.26685 0.428297 1.26685H6.07485C6.09591 1.26685 6.11611 1.27521 6.13101 1.29011C6.1459 1.305 6.15427 1.3252 6.15427 1.34627V1.85855C6.15427 1.87961 6.1459 1.89981 6.13101 1.9147C6.11611 1.9296 6.09591 1.93797 6.07485 1.93797Z" fill="#D1CFC3"/>
<path d="M12.2481 3.71951H2.00604C1.98647 3.71951 1.96707 3.716 1.94874 3.70913L0.578925 3.19589C0.547783 3.18422 0.520944 3.16332 0.501998 3.13599C0.483051 3.10866 0.4729 3.0762 0.4729 3.04294V2.50271C0.4729 2.45939 0.490108 2.41785 0.520737 2.38722C0.551366 2.35659 0.592909 2.33939 0.636225 2.33939H12.2481C12.2914 2.33939 12.3329 2.35659 12.3636 2.38722C12.3942 2.41785 12.4114 2.45939 12.4114 2.50271V3.55619C12.4114 3.5995 12.3942 3.64105 12.3636 3.67168C12.3329 3.7023 12.2914 3.71951 12.2481 3.71951Z" fill="white"/>
<path d="M22.144 6.57545H3.46736C3.43168 6.57545 3.39628 6.56904 3.36287 6.55652L0.86497 5.6206C0.808181 5.59933 0.75924 5.56122 0.724691 5.51138C0.690141 5.46154 0.67163 5.40234 0.671631 5.3417V4.35657C0.671631 4.27758 0.703009 4.20183 0.758862 4.14598C0.814716 4.09012 0.890469 4.05875 0.969458 4.05875H22.144C22.223 4.05875 22.2988 4.09012 22.3546 4.14598C22.4105 4.20183 22.4419 4.27758 22.4419 4.35657V6.27762C22.4419 6.35661 22.4105 6.43236 22.3546 6.48822C22.2988 6.54407 22.223 6.57545 22.144 6.57545Z" fill="#D1CFC3"/>
<path d="M5.32756 2.51837V2.53374C5.29447 2.52454 5.26626 2.51941 5.23222 2.51941C5.04204 2.51941 4.88916 2.67359 4.88916 2.86377C4.88916 3.05395 5.04142 3.20812 5.23158 3.20812C5.26561 3.20812 5.29445 3.20299 5.32754 3.19379V3.2133H6.66777V2.51837H5.32756Z" fill="#00B89C"/>
<path d="M10.7116 4.91315V4.94476C10.6436 4.92584 10.5855 4.91529 10.5156 4.91529C10.1245 4.91529 9.81006 5.23234 9.81006 5.62344C9.81006 6.01453 10.1232 6.33159 10.5142 6.33159C10.5842 6.33159 10.6435 6.32104 10.7116 6.30212V6.34224H13.4677V4.91315H10.7116Z" fill="#F0F0F0"/>
<path d="M19.342 8.75208V8.80972C19.2179 8.77522 19.1121 8.75598 18.9845 8.75598C18.2713 8.75598 17.698 9.33414 17.698 10.0473C17.698 10.7605 18.269 11.3386 18.9821 11.3386C19.1097 11.3386 19.2178 11.3194 19.3419 11.2849V11.3581H24.3678V8.75208H19.342Z" fill="#00B89C"/>
<path d="M6.661 3.20815C6.85119 3.20815 7.00536 3.05398 7.00536 2.86379C7.00536 2.67361 6.85119 2.51944 6.661 2.51944C6.47082 2.51944 6.31665 2.67361 6.31665 2.86379C6.31665 3.05398 6.47082 3.20815 6.661 3.20815Z" fill="#009E83"/>
<path d="M13.4538 6.33158C13.8449 6.33158 14.1619 6.01453 14.1619 5.62343C14.1619 5.23233 13.8449 4.91528 13.4538 4.91528C13.0627 4.91528 12.7456 5.23233 12.7456 5.62343C12.7456 6.01453 13.0627 6.33158 13.4538 6.33158Z" fill="#DCDCDC"/>
<path d="M24.3428 11.3386C25.056 11.3386 25.6342 10.7605 25.6342 10.0473C25.6342 9.33413 25.056 8.75598 24.3428 8.75598C23.6297 8.75598 23.0515 9.33413 23.0515 10.0473C23.0515 10.7605 23.6297 11.3386 24.3428 11.3386Z" fill="#009E83"/>
<path d="M5.6363 3.1413C5.62013 3.1413 5.60412 3.13812 5.58918 3.13193C5.57425 3.12575 5.56067 3.11668 5.54924 3.10524C5.53781 3.09381 5.52874 3.08024 5.52255 3.0653C5.51636 3.05036 5.51318 3.03435 5.51318 3.01818V1.66401C5.51318 1.63136 5.52615 1.60004 5.54924 1.57695C5.57233 1.55386 5.60365 1.54089 5.6363 1.54089C5.66896 1.54089 5.70027 1.55386 5.72336 1.57695C5.74645 1.60004 5.75942 1.63136 5.75942 1.66401V3.01818C5.75942 3.03435 5.75624 3.05036 5.75005 3.0653C5.74387 3.08024 5.7348 3.09381 5.72336 3.10524C5.71193 3.11668 5.69836 3.12575 5.68342 3.13193C5.66848 3.13812 5.65247 3.1413 5.6363 3.1413Z" fill="#597B91"/>
<path d="M11.3462 6.19411C11.313 6.19412 11.28 6.18757 11.2493 6.17485C11.2186 6.16213 11.1907 6.14348 11.1672 6.11997C11.1437 6.09646 11.125 6.06854 11.1123 6.03782C11.0996 6.0071 11.093 5.97418 11.093 5.94093V3.15614C11.093 3.08899 11.1197 3.02459 11.1672 2.97711C11.2147 2.92963 11.2791 2.90295 11.3462 2.90295C11.4134 2.90295 11.4778 2.92963 11.5252 2.97711C11.5727 3.02459 11.5994 3.08899 11.5994 3.15614V5.94093C11.5994 5.97418 11.5929 6.0071 11.5801 6.03782C11.5674 6.06854 11.5488 6.09646 11.5252 6.11997C11.5017 6.14348 11.4738 6.16213 11.4431 6.17485C11.4124 6.18757 11.3795 6.19412 11.3462 6.19411Z" fill="white"/>
<path d="M20.4998 11.088C20.4391 11.088 20.3791 11.076 20.3231 11.0528C20.2671 11.0296 20.2162 10.9956 20.1733 10.9527C20.1304 10.9099 20.0964 10.859 20.0732 10.8029C20.05 10.7469 20.0381 10.6869 20.0381 10.6263V5.54812C20.0381 5.42567 20.0867 5.30824 20.1733 5.22165C20.2599 5.13507 20.3773 5.08643 20.4998 5.08643C20.6222 5.08643 20.7397 5.13507 20.8262 5.22165C20.9128 5.30824 20.9615 5.42567 20.9615 5.54812V10.6263C20.9615 10.6869 20.9495 10.7469 20.9263 10.8029C20.9031 10.859 20.8691 10.9099 20.8263 10.9527C20.7834 10.9956 20.7325 11.0296 20.6765 11.0528C20.6205 11.076 20.5604 11.088 20.4998 11.088Z" fill="#597B91"/>
<path d="M5.94009 3.46164C5.70469 3.46164 5.51318 3.27014 5.51318 3.03474C5.51318 3.00209 5.52615 2.97077 5.54924 2.94768C5.57233 2.92459 5.60365 2.91162 5.6363 2.91162C5.66896 2.91162 5.70027 2.92459 5.72336 2.94768C5.74645 2.97077 5.75942 3.00209 5.75942 3.03474C5.75942 3.13435 5.84045 3.21539 5.94007 3.21539C6.03969 3.21539 6.12072 3.13435 6.12072 3.03474C6.12072 3.00209 6.13369 2.97077 6.15678 2.94768C6.17987 2.92459 6.21118 2.91162 6.24384 2.91162C6.27649 2.91162 6.3078 2.92459 6.33089 2.94768C6.35398 2.97077 6.36695 3.00209 6.36695 3.03474C6.36697 3.27012 6.17547 3.46164 5.94009 3.46164Z" fill="#597B91"/>
<path d="M11.9709 6.85289C11.4868 6.85289 11.093 6.45908 11.093 5.97499C11.093 5.90784 11.1197 5.84344 11.1672 5.79596C11.2147 5.74848 11.2791 5.7218 11.3462 5.7218C11.4134 5.7218 11.4778 5.74848 11.5252 5.79596C11.5727 5.84344 11.5994 5.90784 11.5994 5.97499C11.5994 6.17982 11.766 6.34648 11.9709 6.34648C12.1758 6.34648 12.3424 6.17982 12.3424 5.97499C12.3424 5.90784 12.3691 5.84344 12.4165 5.79596C12.464 5.74848 12.5284 5.7218 12.5956 5.7218C12.6627 5.7218 12.7271 5.74848 12.7746 5.79596C12.8221 5.84344 12.8488 5.90784 12.8488 5.97499C12.8488 6.45904 12.455 6.85289 11.9709 6.85289Z" fill="white"/>
<path d="M21.639 12.2893C20.7562 12.2893 20.0381 11.5711 20.0381 10.6884C20.0381 10.5659 20.0867 10.4485 20.1733 10.3619C20.2599 10.2753 20.3773 10.2267 20.4998 10.2267C20.6222 10.2267 20.7397 10.2753 20.8262 10.3619C20.9128 10.4485 20.9615 10.5659 20.9615 10.6884C20.9615 11.0619 21.2653 11.3658 21.6389 11.3658C22.0125 11.3658 22.3163 11.0619 22.3163 10.6884C22.3163 10.5659 22.365 10.4485 22.4516 10.3619C22.5381 10.2753 22.6556 10.2267 22.778 10.2267C22.9005 10.2267 23.0179 10.2753 23.1045 10.3619C23.1911 10.4485 23.2397 10.5659 23.2397 10.6884C23.2398 11.5711 22.5217 12.2893 21.639 12.2893Z" fill="#597B91"/>
<path d="M6.66118 3.08748C6.78472 3.08748 6.88487 2.98733 6.88487 2.86379C6.88487 2.74025 6.78472 2.64011 6.66118 2.64011C6.53765 2.64011 6.4375 2.74025 6.4375 2.86379C6.4375 2.98733 6.53765 3.08748 6.66118 3.08748Z" fill="#2B3B47"/>
<path d="M13.4539 6.08345C13.7079 6.08345 13.9139 5.8775 13.9139 5.62345C13.9139 5.3694 13.7079 5.16345 13.4539 5.16345C13.1998 5.16345 12.9939 5.3694 12.9939 5.62345C12.9939 5.8775 13.1998 6.08345 13.4539 6.08345Z" fill="#29166F"/>
<path d="M24.343 10.8861C24.8062 10.8861 25.1818 10.5106 25.1818 10.0473C25.1818 9.58405 24.8062 9.2085 24.343 9.2085C23.8797 9.2085 23.5042 9.58405 23.5042 10.0473C23.5042 10.5106 23.8797 10.8861 24.343 10.8861Z" fill="#2B3B47"/>
<path d="M6.00528 2.51944H5.24976V3.20815H5.98871L6.00528 2.51944Z" fill="#00B89C"/>
<path d="M12.1052 4.91528H10.5515V6.33158H12.0711L12.1052 4.91528Z" fill="#F0F0F0"/>
<path d="M21.8835 8.75598H19.0503V11.3386H21.8214L21.8835 8.75598Z" fill="#00B89C"/>
<path d="M1.18042 2.32132H1.90907V2.51539H1.18042V2.32132Z" fill="#FF473E"/>
<path d="M2.18335 4.50787H3.68178V4.90696H2.18335V4.50787Z" fill="#BFBCAF"/>
<path d="M3.79053 8.01309H6.52297V8.74085H3.79053V8.01309Z" fill="#FF473E"/>
<path d="M5.85297 1.30618C5.84116 1.29313 5.82413 1.29212 5.81105 1.30395L5.24503 1.81919V1.31366C5.24503 1.30107 5.23447 1.28963 5.22297 1.28452C5.21734 1.282 5.21111 1.28117 5.20502 1.28213C5.19893 1.28309 5.19325 1.2858 5.18867 1.28993L4.59973 1.81952V1.33977C4.59973 1.33757 4.59791 1.33542 4.5975 1.33333C4.59922 1.3239 4.59603 1.31384 4.5891 1.30618C4.57728 1.29313 4.55519 1.29212 4.5421 1.30395L3.97099 1.81919V1.31366C3.97099 1.30107 3.96511 1.28963 3.9536 1.28452C3.94208 1.27938 3.92631 1.28151 3.91695 1.28993L3.3257 1.81952V1.33977C3.3257 1.33758 3.32854 1.33543 3.32813 1.33337C3.32987 1.32393 3.32901 1.31384 3.32206 1.30618C3.31021 1.29311 3.29289 1.29212 3.27981 1.30395L2.7135 1.81919V1.31366C2.7135 1.30107 2.70402 1.28963 2.69252 1.28452C2.6868 1.28201 2.68048 1.28118 2.6743 1.28214C2.66813 1.2831 2.66236 1.2858 2.65767 1.28993L2.0682 1.81952V1.33977C2.0682 1.33758 2.06746 1.33543 2.06705 1.33337C2.06791 1.32854 2.06766 1.32357 2.06629 1.31886C2.06493 1.31414 2.0625 1.3098 2.05919 1.30618C2.04736 1.29311 2.02446 1.29212 2.01139 1.30395L1.43946 1.81919V1.31366C1.43946 1.30107 1.43466 1.28963 1.42314 1.28452C1.41163 1.27938 1.39948 1.28151 1.39012 1.28993L0.841206 1.78411C0.828102 1.79589 0.827357 1.81608 0.839138 1.82918C0.850919 1.84227 0.867448 1.84334 0.880569 1.83158L1.37327 1.38527V1.89111C1.37327 1.90374 1.38449 1.91517 1.39603 1.92028C1.40018 1.92212 1.40648 1.92303 1.41085 1.92303C1.41863 1.92303 1.42657 1.9202 1.43256 1.91477L2.00202 1.39953V1.89113C2.00202 1.90372 2.01009 1.91515 2.02161 1.92027C2.02578 1.92212 2.03055 1.92303 2.03493 1.92303C2.04266 1.92303 2.05134 1.92022 2.05732 1.91484L2.64731 1.38527V1.89111C2.64731 1.90374 2.65386 1.91517 2.6654 1.92028C2.67693 1.9254 2.69396 1.92321 2.70332 1.91477L3.27606 1.39953V1.89113C3.27606 1.90372 3.27947 1.91515 3.29097 1.92027C3.30248 1.92541 3.3112 1.92328 3.32058 1.91486L3.9048 1.38527V1.89111C3.9048 1.90374 3.91495 1.91517 3.92648 1.92028C3.93063 1.92212 3.93641 1.92303 3.94078 1.92303C3.94855 1.92303 3.9573 1.9202 3.96329 1.91477L4.53355 1.39953V1.89113C4.53355 1.90372 4.54055 1.91515 4.55207 1.92027C4.55621 1.92211 4.56048 1.92303 4.56486 1.92303C4.57258 1.92303 4.58208 1.92022 4.58804 1.91484L5.17884 1.38527V1.89111C5.17884 1.90374 5.18432 1.91517 5.19585 1.92028C5.20735 1.9254 5.21986 1.92325 5.22923 1.91477L5.85122 1.35125C5.86429 1.33944 5.8648 1.31925 5.85297 1.30618Z" fill="#F4F3EF"/>
<path d="M11.7915 2.42029C11.7672 2.39344 11.7322 2.39137 11.7052 2.4157L10.5412 3.47526V2.43567C10.5412 2.40978 10.5195 2.38626 10.4959 2.37575C10.4843 2.37056 10.4715 2.36885 10.459 2.37082C10.4464 2.3728 10.4348 2.37838 10.4254 2.38688L9.21423 3.47594V2.48936C9.21423 2.48484 9.21049 2.48041 9.20964 2.47613C9.21318 2.45673 9.20661 2.43604 9.19235 2.42029C9.16806 2.39344 9.12263 2.39137 9.09572 2.4157L7.92125 3.47526V2.43567C7.92125 2.40978 7.90917 2.38626 7.88549 2.37575C7.8618 2.36517 7.82938 2.36956 7.81012 2.38688L6.59423 3.47594V2.48936C6.59423 2.48487 6.60009 2.48045 6.59924 2.47619C6.60281 2.4568 6.60104 2.43604 6.58675 2.42029C6.56239 2.39341 6.52676 2.39137 6.49988 2.4157L5.33527 3.47526V2.43567C5.33527 2.40978 5.31578 2.38626 5.29213 2.37575C5.28037 2.37058 5.26737 2.36888 5.25468 2.37085C5.24198 2.37282 5.23011 2.37838 5.22047 2.38688L4.00826 3.47594V2.48936C4.00826 2.48487 4.00673 2.48045 4.00588 2.47619C4.00766 2.46626 4.00713 2.45605 4.00433 2.44635C4.00153 2.43666 3.99653 2.42774 3.98972 2.42029C3.96539 2.39341 3.9183 2.39137 3.89142 2.4157L2.71528 3.47526V2.43567C2.71528 2.40978 2.70541 2.38626 2.68173 2.37575C2.65805 2.36517 2.63307 2.36956 2.61381 2.38688L1.485 3.40313C1.45805 3.42736 1.45652 3.46887 1.48075 3.49582C1.50497 3.52273 1.53897 3.52494 1.56595 3.50075L2.57917 2.58293V3.62318C2.57917 3.64914 2.60224 3.67265 2.62596 3.68316C2.6345 3.68694 2.64746 3.68881 2.65645 3.68881C2.67244 3.68881 2.68877 3.68299 2.70109 3.67183L3.87216 2.61226V3.62321C3.87216 3.6491 3.88876 3.67261 3.91245 3.68313C3.92102 3.68694 3.93082 3.68881 3.93984 3.68881C3.95573 3.68881 3.97359 3.68303 3.98587 3.67197L5.19917 2.58293V3.62318C5.19917 3.64914 5.21265 3.67265 5.23636 3.68316C5.26008 3.69368 5.29509 3.68919 5.31435 3.67183L6.49216 2.61226V3.62321C6.49216 3.6491 6.49917 3.67261 6.52281 3.68313C6.5465 3.69371 6.56443 3.68932 6.58372 3.672L7.78514 2.58293V3.62318C7.78514 3.64914 7.806 3.67265 7.82972 3.68316C7.83826 3.68694 7.85013 3.68881 7.85911 3.68881C7.87511 3.68881 7.89311 3.68299 7.90542 3.67183L9.07813 2.61226V3.62321C9.07813 3.6491 9.09252 3.67261 9.1162 3.68313C9.12473 3.68692 9.1335 3.68881 9.14251 3.68881C9.1584 3.68881 9.17793 3.68303 9.19018 3.67197L10.4051 2.58293V3.62318C10.4051 3.64914 10.4164 3.67265 10.4401 3.68316C10.4638 3.69368 10.4895 3.68925 10.5087 3.67183L11.7879 2.51298C11.8147 2.48868 11.8158 2.44717 11.7915 2.42029Z" fill="#F4F3EF"/>
<path d="M21.3116 4.20628C21.2673 4.15733 21.2035 4.15354 21.1544 4.19791L19.0318 6.13006V4.23433C19.0318 4.18711 18.9922 4.14424 18.9491 4.12506C18.928 4.1156 18.9046 4.11248 18.8818 4.11608C18.8589 4.11968 18.8376 4.12985 18.8205 4.14535L16.612 6.1313V4.33224C16.612 4.32399 16.6052 4.31592 16.6036 4.3081C16.6101 4.27274 16.5981 4.23501 16.5721 4.20628C16.5278 4.15733 16.4449 4.15354 16.3959 4.19791L14.2542 6.13006V4.23433C14.2542 4.18711 14.2322 4.14424 14.189 4.12506C14.1458 4.10577 14.0867 4.11377 14.0515 4.14535L11.8343 6.1313V4.33224C11.8343 4.32405 11.845 4.31598 11.8435 4.30823C11.85 4.27286 11.8467 4.23501 11.8207 4.20628C11.7763 4.15727 11.7113 4.15354 11.6623 4.19791L9.53859 6.13006V4.23433C9.53859 4.18711 9.50303 4.14424 9.45991 4.12506C9.43846 4.11563 9.41476 4.11253 9.39161 4.11613C9.36846 4.11972 9.34682 4.12986 9.32924 4.14535L7.11874 6.1313V4.33224C7.11874 4.32405 7.11595 4.31598 7.1144 4.30823C7.11765 4.29011 7.11668 4.27149 7.11157 4.25381C7.10646 4.23613 7.09734 4.21987 7.08493 4.20628C7.04056 4.15727 6.95469 4.15354 6.90567 4.19791L4.76094 6.13006V4.23433C4.76094 4.18711 4.74295 4.14424 4.69977 4.12506C4.65658 4.10577 4.61104 4.11377 4.57592 4.14535L2.5175 5.99852C2.46836 6.0427 2.46557 6.11839 2.50974 6.16754C2.55392 6.21662 2.61591 6.22065 2.66511 6.17653L4.51275 4.50287V6.39978C4.51275 6.44712 4.55482 6.49 4.59807 6.50917C4.61364 6.51606 4.63728 6.51947 4.65366 6.51947C4.68283 6.51947 4.71261 6.50886 4.73507 6.48851L6.87055 4.55635V6.39984C6.87055 6.44706 6.90083 6.48993 6.94402 6.50911C6.95965 6.51606 6.97752 6.51947 6.99396 6.51947C7.02294 6.51947 7.05552 6.50892 7.07791 6.48876L9.2904 4.50287V6.39978C9.2904 6.44712 9.31497 6.49 9.35821 6.50917C9.40146 6.52834 9.46531 6.52015 9.50043 6.48851L11.6482 4.55635V6.39984C11.6482 6.44706 11.661 6.48993 11.7041 6.50911C11.7473 6.5284 11.78 6.5204 11.8152 6.48882L14.006 4.50287V6.39978C14.006 6.44712 14.044 6.49 14.0873 6.50917C14.1028 6.51606 14.1245 6.51947 14.1409 6.51947C14.17 6.51947 14.2029 6.50886 14.2253 6.48851L16.3638 4.55635V6.39984C16.3638 6.44706 16.39 6.48993 16.4332 6.50911C16.4488 6.51601 16.4648 6.51947 16.4812 6.51947C16.5102 6.51947 16.5458 6.50892 16.5681 6.48876L18.7836 4.50287V6.39978C18.7836 6.44712 18.8042 6.49 18.8474 6.50917C18.8905 6.52834 18.9375 6.52027 18.9726 6.48851L21.305 4.3753C21.3541 4.331 21.356 4.2553 21.3116 4.20628Z" fill="#F4F3EF"/>
<path d="M5.49243 1.79413H5.78008V2.08178H5.49243V1.79413Z" fill="#2B3B47"/>
<path d="M11.0505 3.42377H11.6421V4.01531H11.0505V3.42377Z" fill="#BFBCAF"/>
<path d="M19.9604 6.03613H21.0391V7.11483H19.9604V6.03613Z" fill="#2B3B47"/>
<path d="M5.63626 1.93795C5.78756 1.93795 5.91021 1.8153 5.91021 1.664C5.91021 1.5127 5.78756 1.39005 5.63626 1.39005C5.48496 1.39005 5.3623 1.5127 5.3623 1.664C5.3623 1.8153 5.48496 1.93795 5.63626 1.93795Z" fill="#FF473E"/>
<path d="M11.3463 3.71951C11.6575 3.71951 11.9097 3.46728 11.9097 3.15614C11.9097 2.845 11.6575 2.59277 11.3463 2.59277C11.0352 2.59277 10.783 2.845 10.783 3.15614C10.783 3.46728 11.0352 3.71951 11.3463 3.71951Z" fill="#BFBCAF"/>
<path d="M20.4997 6.57545C21.0671 6.57545 21.527 6.1155 21.527 5.54813C21.527 4.98076 21.0671 4.52081 20.4997 4.52081C19.9324 4.52081 19.4724 4.98076 19.4724 5.54813C19.4724 6.1155 19.9324 6.57545 20.4997 6.57545Z" fill="#FF473E"/>
<path d="M5.63625 1.80781C5.71568 1.80781 5.78007 1.74342 5.78007 1.66399C5.78007 1.58456 5.71568 1.52017 5.63625 1.52017C5.55682 1.52017 5.49243 1.58456 5.49243 1.66399C5.49243 1.74342 5.55682 1.80781 5.63625 1.80781Z" fill="white"/>
<path d="M11.3463 3.45189C11.5096 3.45189 11.642 3.31948 11.642 3.15614C11.642 2.9928 11.5096 2.86038 11.3463 2.86038C11.183 2.86038 11.0505 2.9928 11.0505 3.15614C11.0505 3.31948 11.183 3.45189 11.3463 3.45189Z" fill="white"/>
<path d="M20.4998 6.08745C20.7976 6.08745 21.0391 5.84599 21.0391 5.54813C21.0391 5.25028 20.7976 5.00882 20.4998 5.00882C20.2019 5.00882 19.9604 5.25028 19.9604 5.54813C19.9604 5.84599 20.2019 6.08745 20.4998 6.08745Z" fill="white"/>
<path d="M1.18042 1.26685H1.90905V1.93798H1.18042V1.26685Z" fill="#BFBCAF"/>
<path d="M2.18335 2.33939H3.68175V3.71955H2.18335V2.33939Z" fill="#BFBCAF"/>
<path d="M3.79053 4.05875H6.5229V6.57551H3.79053V4.05875Z" fill="#BFBCAF"/>
</g>
<defs>
<clipPath id="clip0_142_252">
<rect width="31.7682" height="30.9484" fill="white" transform="translate(0.231445 0.251587)"/>
</clipPath>
</defs>
</svg>
