<svg width="36" height="36" viewBox="0 0 36 36" fill="none" xmlns="http://www.w3.org/2000/svg">
<path d="M6.99742 4.36248L6.04367 22.3625H1.67992L0.544922 3.81748C0.544922 1.63498 2.34992 0.544983 3.81742 0.544983C5.72117 0.544983 7.08492 2.62248 6.99742 4.36248Z" fill="#EDEDED"/>
<path d="M3.81742 0.544983C2.34992 0.544983 0.544922 1.63498 0.544922 3.81748L1.67992 22.3612H3.81742V0.544983Z" fill="white"/>
<path d="M6.04373 22.3625H1.68123L1.63623 24.605C1.63623 27.83 4.06873 30.66 7.28748 30.855C8.45793 30.9272 9.624 30.6562 10.6427 30.0754C11.6614 29.4945 12.4885 28.629 13.0225 27.585C13.0672 27.4978 13.0877 27.4002 13.0816 27.3024C13.0756 27.2047 13.0433 27.1103 12.9881 27.0293C12.933 26.9484 12.857 26.8837 12.7683 26.8423C12.6795 26.8008 12.5812 26.784 12.4837 26.7937C9.28248 27.1087 6.04373 24.4887 6.04373 22.3625Z" fill="white"/>
<path d="M17.7513 14.3812C17.8232 14.1637 17.962 13.9744 18.1479 13.8404C18.3337 13.7063 18.5572 13.6345 18.7863 13.635H26.2813L7.03631 1.48247C5.45506 0.536224 4.00381 0.146223 3.12131 1.40997C2.23881 2.67372 3.10381 3.90372 4.53756 5.05997L17.5251 15.0575L17.7513 14.3812Z" fill="white"/>
<path d="M28.9088 19.09V14.725C28.9088 14.4358 28.794 14.1584 28.5896 13.9538C28.3852 13.7492 28.108 13.6341 27.8188 13.6337H18.7863C18.5574 13.6335 18.3342 13.7055 18.1486 13.8395C17.963 13.9735 17.8244 14.1626 17.7526 14.38L14.1151 25.2887C14.0604 25.4527 14.0455 25.6274 14.0716 25.7983C14.0976 25.9692 14.1639 26.1315 14.265 26.2717C14.3661 26.412 14.499 26.5262 14.6529 26.605C14.8068 26.6838 14.9772 26.7249 15.1501 26.725H22.6976L29.4163 20.0075C29.2611 19.9096 29.1331 19.774 29.0444 19.6134C28.9556 19.4527 28.909 19.2735 28.9088 19.09Z" fill="#FACB1B"/>
<path d="M35.4551 21.2712C35.4556 21.1278 35.4277 20.9857 35.373 20.853C35.3183 20.7204 35.238 20.5999 35.1365 20.4985C35.0351 20.3971 34.9146 20.3167 34.782 20.262C34.6494 20.2074 34.5072 20.1795 34.3638 20.18H30.0013C29.858 20.1801 29.7161 20.1521 29.5836 20.0974C29.4511 20.0427 29.3308 19.9625 29.2293 19.8612C29.1279 19.76 29.0473 19.6398 28.9923 19.5075C28.9374 19.3752 28.909 19.2333 28.9088 19.09V14.725C28.9093 14.5816 28.8815 14.4396 28.8269 14.3071C28.7723 14.1745 28.692 14.0541 28.5907 13.9527C28.4894 13.8513 28.3691 13.7709 28.2366 13.7161C28.1041 13.6614 27.9621 13.6334 27.8188 13.6337H18.7863C18.5574 13.6335 18.3342 13.7055 18.1486 13.8395C17.963 13.9735 17.8244 14.1626 17.7526 14.38L14.1151 25.2887C14.0604 25.4527 14.0455 25.6274 14.0716 25.7983C14.0976 25.9692 14.1639 26.1315 14.265 26.2717C14.3661 26.412 14.499 26.5262 14.6529 26.605C14.8068 26.6838 14.9772 26.7249 15.1501 26.725H34.3638C34.6532 26.725 34.9308 26.61 35.1354 26.4054C35.3401 26.2007 35.4551 25.9231 35.4551 25.6337V21.2712Z" fill="white"/>
<path d="M13.6375 31.0887C13.6373 31.6617 13.75 32.2291 13.9692 32.7586C14.1883 33.288 14.5096 33.7691 14.9148 34.1743C15.3199 34.5795 15.8008 34.901 16.3302 35.1203C16.8596 35.3396 17.427 35.4525 18 35.4525H31.0912C32.2485 35.4525 33.3585 34.9927 34.1768 34.1744C34.9952 33.356 35.455 32.2461 35.455 31.0887C35.455 29.9314 34.9952 28.8215 34.1768 28.0031C33.3585 27.1847 32.2485 26.725 31.0912 26.725H18C17.427 26.725 16.8596 26.8379 16.3302 27.0572C15.8008 27.2765 15.3199 27.5979 14.9148 28.0032C14.5096 28.4084 14.1883 28.8895 13.9692 29.4189C13.75 29.9483 13.6373 30.5157 13.6375 31.0887Z" fill="white"/>
<path d="M33.2724 21.2712H28.9099V22.3625H33.2724V21.2712ZM33.2724 23.4525H28.9099V24.5437H33.2724V23.4525Z" fill="#EDEDED"/>
<path d="M27.2725 14.725C27.5737 14.725 27.8175 14.97 27.8175 15.2712V19.8225C27.8175 20.04 27.6887 20.235 27.49 20.3225L16.4175 25.1362C16.3202 25.1781 16.2129 25.1909 16.1085 25.1729C16.0041 25.1549 15.9073 25.107 15.8296 25.0349C15.752 24.9629 15.697 24.8698 15.6713 24.7671C15.6457 24.6643 15.6504 24.5563 15.685 24.4562L18.9637 15.0912C19.0015 14.9846 19.0712 14.8923 19.1634 14.8268C19.2555 14.7612 19.3656 14.7257 19.4787 14.725H27.2725Z" fill="#29166F"/>
<path d="M31.0912 28.9062H18V33.27H31.0912V28.9062Z" fill="#E2E4E5"/>
<path d="M31.0901 33.27C31.6686 33.27 32.2234 33.0402 32.6325 32.6311C33.0415 32.222 33.2713 31.6672 33.2713 31.0887C33.2713 30.5102 33.0415 29.9554 32.6325 29.5463C32.2234 29.1373 31.6686 28.9075 31.0901 28.9075C30.5116 28.9075 29.9568 29.1373 29.5477 29.5463C29.1387 29.9554 28.9088 30.5102 28.9088 31.0887C28.9088 31.6672 29.1387 32.222 29.5477 32.6311C29.9568 33.0402 30.5116 33.27 31.0901 33.27ZM18.0001 33.27C18.5786 33.27 19.1334 33.0402 19.5425 32.6311C19.9515 32.222 20.1813 31.6672 20.1813 31.0887C20.1813 30.5102 19.9515 29.9554 19.5425 29.5463C19.1334 29.1373 18.5786 28.9075 18.0001 28.9075C17.4216 28.9075 16.8668 29.1373 16.4577 29.5463C16.0487 29.9554 15.8188 30.5102 15.8188 31.0887C15.8188 31.6672 16.0487 32.222 16.4577 32.6311C16.8668 33.0402 17.4216 33.27 18.0001 33.27Z" fill="#CFD3D4"/>
<path d="M31.0899 29.9975C31.3793 29.9975 31.6569 30.1124 31.8615 30.3171C32.0662 30.5217 32.1812 30.7993 32.1812 31.0887C32.1812 31.3781 32.0662 31.6557 31.8615 31.8603C31.6569 32.065 31.3793 32.18 31.0899 32.18C30.8005 32.18 30.5229 32.065 30.3183 31.8603C30.1136 31.6557 29.9987 31.3781 29.9987 31.0887C29.9987 30.7993 30.1136 30.5217 30.3183 30.3171C30.5229 30.1124 30.8005 29.9975 31.0899 29.9975ZM31.0899 28.9062C29.8874 28.9062 28.9087 29.885 28.9087 31.0887C28.9087 32.2912 29.8874 33.27 31.0899 33.27C32.2924 33.27 33.2724 32.2912 33.2724 31.0875C33.2724 29.885 32.2937 28.9062 31.0899 28.9062ZM17.9999 29.9975C18.2893 29.9976 18.5668 30.1128 18.7714 30.3175C18.9759 30.5223 19.0907 30.7999 19.0905 31.0893C19.0904 31.3788 18.9752 31.6563 18.7705 31.8608C18.5657 32.0653 18.2881 32.1801 17.9987 32.18C17.7092 32.18 17.4317 32.065 17.227 31.8603C17.0224 31.6557 16.9074 31.3781 16.9074 31.0887C16.9074 30.7993 17.0224 30.5217 17.227 30.3171C17.4317 30.1124 17.7105 29.9975 17.9999 29.9975ZM17.9987 28.9062C16.7949 28.9062 15.8162 29.885 15.8162 31.0887C15.843 31.6492 16.0845 32.1778 16.4907 32.5649C16.8968 32.952 17.4363 33.168 17.9974 33.168C18.5585 33.168 19.098 32.952 19.5042 32.5649C19.9103 32.1778 20.1518 31.6492 20.1787 31.0887C20.1787 30.5103 19.9491 29.9556 19.5403 29.5463C19.1315 29.1371 18.5771 28.9069 17.9987 28.9062Z" fill="#29166F"/>
<path d="M24.0499 14.725H19.4786C19.3656 14.7257 19.2554 14.7612 19.1633 14.8268C19.0711 14.8923 19.0014 14.9846 18.9636 15.0912L16.4211 22.355L24.0499 14.725Z" fill="#29166F"/>
</svg>
