<svg width="48" height="48" viewBox="0 0 48 48" fill="none" xmlns="http://www.w3.org/2000/svg">
<path fill-rule="evenodd" clip-rule="evenodd" d="M18 7C18 8.32608 17.4732 9.59785 16.5355 10.5355C15.5979 11.4732 14.3261 12 13 12C11.6739 12 10.4021 11.4732 9.46447 10.5355C8.52678 9.59785 8 8.32608 8 7C8 5.67392 8.52678 4.40215 9.46447 3.46447C10.4021 2.52678 11.6739 2 13 2C14.3261 2 15.5979 2.52678 16.5355 3.46447C17.4732 4.40215 18 5.67392 18 7ZM35 37C36.3261 37 37.5979 36.4732 38.5355 35.5355C39.4732 34.5979 40 33.3261 40 32C40 30.6739 39.4732 29.4021 38.5355 28.4645C37.5979 27.5268 36.3261 27 35 27C33.6739 27 32.4021 27.5268 31.4645 28.4645C30.5268 29.4021 30 30.6739 30 32C30 33.3261 30.5268 34.5979 31.4645 35.5355C32.4021 36.4732 33.6739 37 35 37ZM26 46V42C26 42 29 39 35 39C41 39 44 42 44 42V46H26ZM4 21V17C4 17 7 14 13 14C19 14 22 17 22 17V21H4ZM36 10H27V6H40V19H36V10ZM8 29V42H21V38H12V29H8Z" fill="#29166F"/>
</svg>
