<svg width="48" height="48" viewBox="0 0 48 48" fill="none" xmlns="http://www.w3.org/2000/svg">
<path d="M40 21H44V44H40V21ZM34 28H38V44H34V28ZM28 23H32V44H28V23ZM22 29H26V44H22V29ZM16 32H20V44H16V32ZM10 30H14V44H10V30ZM4 34H8V44H4V34Z" fill="#29166F"/>
<path d="M40.1001 9.1001L34.0001 15.2001L30.0001 11.2001L20.0001 21.2001L15.0001 16.2001L4.6001 26.6001L7.4001 29.4001L15.0001 21.8001L20.0001 26.8001L30.0001 16.8001L34.0001 20.8001L42.9001 11.9001L40.1001 9.1001Z" fill="#29166F"/>
<path d="M44 8H35L44 17V8Z" fill="#29166F"/>
</svg>
