<svg width="40" height="42" viewBox="0 0 40 42" fill="none" xmlns="http://www.w3.org/2000/svg">
<path d="M19.9997 0.0697021C13.5588 0.0697021 8.31999 5.30849 8.31999 11.7494C8.31999 18.1903 13.5588 23.4291 19.9997 23.4291C26.4406 23.4291 31.6794 18.1903 31.6794 11.7494C31.6794 5.30849 26.4406 0.0697021 19.9997 0.0697021ZM19.2513 2.86627L18.1935 6.0329L22.8784 5.54208L22.4124 3.97368L23.7263 4.33746V6.07746L25.7786 6.21133L25.3772 4.64985L26.4559 4.02507C28.6615 5.86939 30.0622 8.64232 30.0622 11.7494C30.0622 13.2469 29.7365 14.6667 29.1525 15.9426L26.8049 16.3399V19.168C26.3571 19.579 25.873 19.9485 25.3585 20.2721L24.3508 18.7046L22.3875 19.24L22.9392 21.377C21.9862 21.6661 20.9956 21.8127 19.9997 21.8119C17.2134 21.8119 14.6956 20.6857 12.8753 18.8627L14.6686 18.6154L15.8734 16.2506L12.036 14.332L14.7578 12.0117L12.3931 10.0486L9.97698 10.8539C10.2566 7.66914 12.0122 4.91498 14.5585 3.27847L15.0702 7.37139L19.2513 2.86627ZM22.7444 8.63576L19.4948 10.718L22.3344 13.242L24.3852 12.6425L24.1958 15.1034L27.9504 14.1569L26.5305 10.9389L24.259 10.9704L26.2782 9.2352L22.7445 8.63576H22.7444ZM19.3687 12.2639L17.6334 13.021L18.8638 13.936L19.3687 12.2639ZM15.2932 12.5473L14.0886 13.9749L17.426 16.3205L15.2932 12.5473ZM20.6623 13.3366L19.4319 15.6399L22.3976 17.659L21.3563 16.1761L22.6499 14.6301L20.6623 13.3366ZM2.40558 15.7978C1.61334 15.7855 0.802496 16.7945 0.797824 19.381C0.790816 23.3479 0.406464 24.4676 2.24224 28.9539C3.58837 32.2438 4.19203 34.7725 8.49968 36.8158C9.00999 38.6146 8.80632 39.0376 8.46015 40.5749C8.13707 42.01 11.463 42.2738 13.8987 41.0648C16.5124 39.6391 16.2931 35.714 15.8262 33.0522C15.2832 29.9567 13.5747 29.3133 12.0938 27.9911C10.5561 25.7921 10.1983 21.8087 7.70438 20.2017C7.18356 19.8661 4.52661 19.5255 8.17714 28.6418C3.36412 27.4498 4.24082 21.9239 3.89276 17.8327C3.78908 16.6143 3.10456 15.8085 2.40558 15.7977V15.7978ZM37.5938 15.7978C36.8948 15.8086 36.2103 16.6143 36.1066 17.8328C35.7585 21.9239 36.6352 27.4498 31.8222 28.6418C35.4728 19.5254 32.8158 19.8661 32.295 20.2017C29.8011 21.8087 29.4433 25.7921 27.9056 27.9912C26.4248 29.3133 24.7161 29.9567 24.1732 33.0522C23.7063 35.714 23.487 39.6391 26.1006 41.0648C28.5364 42.2737 31.8623 42.01 31.5391 40.5749C31.193 39.0376 30.9894 38.6146 31.4997 36.8158C35.8073 34.7725 36.411 32.2438 37.7571 28.9539C39.5929 24.4676 39.2085 23.3479 39.2015 19.3811C39.1969 16.7945 38.386 15.7855 37.5938 15.7978Z" fill="white"/>
</svg>
