<svg width="48" height="48" viewBox="0 0 48 48" fill="none" xmlns="http://www.w3.org/2000/svg">
<path d="M10.286 28C8.78535 25.5425 7.99414 22.7175 8.00003 19.838C8.00003 11.09 15.164 4 24 4C32.836 4 40 11.09 40 19.838C40.0059 22.7175 39.2147 25.5425 37.714 28" stroke="#29166F" stroke-width="3" stroke-linecap="round"/>
<path d="M30.0002 38L29.7402 39.294C29.4602 40.708 29.3182 41.414 29.0002 41.974C28.5102 42.8371 27.7168 43.4872 26.7742 43.798C26.1642 44 25.4402 44 24.0002 44C22.5602 44 21.8362 44 21.2262 43.8C20.2833 43.4887 19.4899 42.8379 19.0002 41.974C18.6822 41.414 18.5402 40.708 18.2602 39.294L18.0002 38M14.7662 34.196C14.5822 33.644 14.4902 33.366 14.5002 33.142C14.5116 32.9104 14.5897 32.687 14.7253 32.4989C14.8609 32.3108 15.0481 32.166 15.2642 32.082C15.4722 32 15.7642 32 16.3442 32H31.6562C32.2382 32 32.5282 32 32.7362 32.08C32.9527 32.1641 33.1401 32.3092 33.2757 32.4977C33.4113 32.6862 33.4893 32.91 33.5002 33.142C33.5102 33.366 33.4182 33.642 33.2342 34.196C32.8942 35.218 32.7242 35.73 32.4622 36.144C31.9142 37.0092 31.0552 37.6313 30.0622 37.882C29.5862 38 29.0502 38 27.9762 38H20.0242C18.9502 38 18.4122 38 17.9382 37.88C16.9456 37.6298 16.0866 37.0085 15.5382 36.144C15.2762 35.73 15.1062 35.218 14.7662 34.196Z" stroke="#29166F" stroke-width="3"/>
<path d="M16.5 19.5L21 24V32M31.5 19.5L27 24V32M16.5 21C16.8978 21 17.2794 20.842 17.5607 20.5607C17.842 20.2794 18 19.8978 18 19.5C18 19.1022 17.842 18.7206 17.5607 18.4393C17.2794 18.158 16.8978 18 16.5 18C16.1022 18 15.7206 18.158 15.4393 18.4393C15.158 18.7206 15 19.1022 15 19.5C15 19.8978 15.158 20.2794 15.4393 20.5607C15.7206 20.842 16.1022 21 16.5 21ZM31.5 21C31.1022 21 30.7206 20.842 30.4393 20.5607C30.158 20.2794 30 19.8978 30 19.5C30 19.1022 30.158 18.7206 30.4393 18.4393C30.7206 18.158 31.1022 18 31.5 18C31.8978 18 32.2794 18.158 32.5607 18.4393C32.842 18.7206 33 19.1022 33 19.5C33 19.8978 32.842 20.2794 32.5607 20.5607C32.2794 20.842 31.8978 21 31.5 21Z" stroke="#29166F" stroke-width="3" stroke-linecap="round" stroke-linejoin="round"/>
</svg>
