<svg width="32" height="26" viewBox="0 0 32 26" fill="none" xmlns="http://www.w3.org/2000/svg">
<path d="M6.608 16.2533H6.4C5.70474 16.2564 5.0294 16.4895 4.47616 16.9172C3.92292 17.3449 3.52188 17.9439 3.33371 18.6237C3.14554 19.3035 3.18048 20.027 3.43325 20.6848C3.68601 21.3426 4.14285 21.8989 4.73464 22.2696C5.32644 22.6402 6.02099 22.805 6.71321 22.7391C7.40544 22.6731 8.05769 22.3799 8.57127 21.904C9.08485 21.428 9.43182 20.7951 9.5597 20.101C9.68757 19.4069 9.58939 18.6894 9.28 18.057L12.576 13.0033C12.9265 13.0236 13.2778 12.9851 13.616 12.8895L16.096 15.4083C15.9605 15.9165 15.9485 16.4505 16.0611 16.9644C16.1738 17.4783 16.4077 17.9567 16.7427 18.3585C17.0777 18.7603 17.5039 19.0734 17.9844 19.2708C18.4649 19.4683 18.9855 19.5443 19.5014 19.4922C20.0172 19.4401 20.5129 19.2614 20.9457 18.9717C21.3786 18.682 21.7356 18.2897 21.9861 17.8288C22.2367 17.3679 22.3732 16.8521 22.384 16.3257C22.3948 15.7993 22.2795 15.2781 22.048 14.807L25.392 9.7533H25.6C26.2953 9.75014 26.9706 9.5171 27.5238 9.08942C28.0771 8.66174 28.4781 8.0627 28.6663 7.38292C28.8545 6.70314 28.8195 5.97961 28.5668 5.32179C28.314 4.66397 27.8571 4.10766 27.2654 3.73702C26.6736 3.36638 25.979 3.20158 25.2868 3.26754C24.5946 3.3335 23.9423 3.62665 23.4287 4.10262C22.9151 4.5786 22.5682 5.2115 22.4403 5.90559C22.3124 6.59968 22.4106 7.31718 22.72 7.94955L19.424 13.0033C19.0735 12.983 18.7222 13.0215 18.384 13.117L15.888 10.5983C16.0236 10.0901 16.0355 9.55611 15.9229 9.0422C15.8102 8.52829 15.5763 8.04987 15.2413 7.6481C14.9063 7.24633 14.4801 6.93323 13.9996 6.73575C13.5191 6.53828 12.9985 6.46232 12.4826 6.51443C11.9668 6.56654 11.4711 6.74515 11.0383 7.0349C10.6054 7.32464 10.2484 7.71685 9.99787 8.17777C9.74733 8.63869 9.6108 9.15453 9.60003 9.68091C9.58925 10.2073 9.70455 10.7284 9.936 11.1995L6.608 16.2533ZM0 3.2533C0 1.4658 1.44 0.0032959 3.2 0.0032959H28.8C29.6487 0.0032959 30.4626 0.345705 31.0627 0.955199C31.6629 1.56469 32 2.39134 32 3.2533V22.7533C32 23.6152 31.6629 24.4419 31.0627 25.0514C30.4626 25.6609 29.6487 26.0033 28.8 26.0033H3.2C2.35131 26.0033 1.53737 25.6609 0.937258 25.0514C0.337142 24.4419 0 23.6152 0 22.7533V3.2533Z" fill="white"/>
</svg>
