<svg width="34" height="34" viewBox="0 0 34 34" fill="none" xmlns="http://www.w3.org/2000/svg">
<path fill-rule="evenodd" clip-rule="evenodd" d="M33.6598 3.47415C33.6598 2.05606 32.5265 0.922729 31.1098 0.922729H29.9765C29.1251 0.922729 28.5584 1.4894 28.5584 2.3394V17.927C28.5584 18.777 29.1251 19.3436 29.9751 19.3436H31.1084C32.5251 19.3436 33.6598 20.477 33.6598 21.8951V3.47415ZM26.432 17.6408V2.47823H13.8208C12.9708 2.47823 12.4042 3.0449 12.4042 3.8949V12.555C12.4731 12.5512 12.5425 12.5493 12.6124 12.5493H14.0291C14.9386 12.5493 15.8594 12.861 16.5607 13.5622C16.9757 13.9782 17.2759 14.4946 17.4319 15.0611C19.147 15.6696 20.7084 16.6454 22.007 17.9203C23.3056 19.1952 24.3101 20.7384 24.9502 22.4419H31.1084C31.3049 22.4419 31.4947 22.4216 31.6779 22.381C31.5824 22.1353 31.5334 21.8739 31.5334 21.6103C31.5334 21.3666 31.3521 21.1853 31.1084 21.1853H29.9751C29.0684 21.1853 28.1448 20.8736 27.4449 20.1724C26.7451 19.4726 26.432 18.5503 26.432 17.6422M24.7745 33.0867C25.6925 33.0867 26.3031 32.4747 26.3031 31.5581V30.031C26.3031 29.1158 25.6925 28.5038 24.7759 28.5038H1.86843C0.950427 28.5038 0.339844 29.1158 0.339844 30.031V31.5581C0.339844 32.4747 0.950427 33.0867 1.86701 33.0867H24.7745ZM11.1972 16.091V26.3533H15.4472V16.091C15.4472 15.241 14.8805 14.6743 14.0305 14.6743H12.6138C11.7638 14.6743 11.1972 15.241 11.1972 16.091ZM9.07218 26.3533V26.3774H3.05276C3.18593 22.4433 5.59001 19.0008 9.07076 17.4085L9.07218 26.3533ZM23.5916 26.3774H17.5736V17.4085C21.0543 19.0008 23.4584 22.4433 23.5916 26.376" fill="white"/>
</svg>
