<svg width="48" height="48" viewBox="0 0 48 48" fill="none" xmlns="http://www.w3.org/2000/svg">
<path d="M32.355 41.625C29.745 42.8661 26.8901 43.5068 24 43.5C13.248 43.5 4.50004 34.752 4.50004 24C4.50004 19.3875 6.08554 15.0315 9.00004 11.538V15H12V6H3.00004V9H7.26304C3.54391 13.1096 1.48928 18.4574 1.50004 24C1.50004 36.4065 11.5935 46.5 24 46.5C27.3364 46.5069 30.632 45.7668 33.645 44.334L32.355 41.625Z" fill="#29166F"/>
<path d="M31.5 13.5C26.76 13.5 22.8735 17.1855 22.533 21.84C20.884 20.3353 18.7324 19.5008 16.5 19.5H10.5V25.5C10.5 30.4635 14.538 34.5 19.5 34.5H22.5V40.5H25.5V28.5H28.5C33.462 28.5 37.5 24.4635 37.5 19.5V13.5H31.5ZM19.5 31.5C16.191 31.5 13.5 28.809 13.5 25.5V22.5H16.5C19.809 22.5 22.5 25.191 22.5 28.5V29.379L19.0605 25.9395L16.9395 28.0605L20.379 31.5H19.5ZM34.5 19.5C34.5 22.809 31.809 25.5 28.5 25.5H27.621L31.0605 22.0605L28.9395 19.9395L25.5 23.379V22.5C25.5 19.191 28.191 16.5 31.5 16.5H34.5V19.5Z" fill="#29166F"/>
<path d="M46.5 24C46.5 11.5935 36.4065 1.50005 24 1.50005C20.6636 1.4931 17.368 2.2332 14.355 3.66605L15.645 6.37505C18.255 5.13395 21.1099 4.49326 24 4.50005C34.752 4.50005 43.5 13.248 43.5 24C43.5 28.6125 41.9145 32.9685 39 36.4621V33H36V42H45V39H40.737C44.4561 34.8905 46.5107 29.5427 46.5 24Z" fill="#29166F"/>
</svg>
