<svg width="1213" height="185" viewBox="0 0 1213 185" fill="none" xmlns="http://www.w3.org/2000/svg">
<path d="M135.26 140.375C137.093 140.375 138.718 141.083 140.135 142.5L153.385 156.875C146.051 165.958 137.01 172.917 126.26 177.75C115.593 182.583 102.76 185 87.7598 185C74.3431 185 62.2598 182.708 51.5098 178.125C40.8431 173.542 31.7181 167.167 24.1348 159C16.5514 150.833 10.7181 141.083 6.63477 129.75C2.63477 118.417 0.634767 106.042 0.634767 92.625C0.634767 79.0417 2.80143 66.625 7.13477 55.375C11.4681 44.0417 17.5514 34.2917 25.3848 26.125C33.3014 17.9583 42.7181 11.625 53.6348 7.12499C64.5514 2.54166 76.6348 0.249998 89.8848 0.249998C103.051 0.249998 114.718 2.41666 124.885 6.74999C135.135 11.0833 143.843 16.75 151.01 23.75L139.76 39.375C139.093 40.375 138.218 41.25 137.135 42C136.135 42.75 134.718 43.125 132.885 43.125C131.635 43.125 130.343 42.7917 129.01 42.125C127.676 41.375 126.218 40.5 124.635 39.5C123.051 38.4167 121.218 37.25 119.135 36C117.051 34.75 114.635 33.625 111.885 32.625C109.135 31.5417 105.926 30.6667 102.26 30C98.6764 29.25 94.5098 28.875 89.7598 28.875C81.6764 28.875 74.2598 30.3333 67.5098 33.25C60.8431 36.0833 55.0931 40.25 50.2598 45.75C45.4264 51.1667 41.6764 57.8333 39.0098 65.75C36.3431 73.5833 35.0098 82.5417 35.0098 92.625C35.0098 102.792 36.4264 111.833 39.2598 119.75C42.1764 127.667 46.0931 134.333 51.0098 139.75C55.9264 145.167 61.7181 149.333 68.3848 152.25C75.0514 155.083 82.2181 156.5 89.8848 156.5C94.4681 156.5 98.5931 156.25 102.26 155.75C106.01 155.25 109.426 154.458 112.51 153.375C115.676 152.292 118.635 150.917 121.385 149.25C124.218 147.5 127.01 145.375 129.76 142.875C130.593 142.125 131.468 141.542 132.385 141.125C133.301 140.625 134.26 140.375 135.26 140.375ZM225.607 52.75C235.107 52.75 243.732 54.2917 251.482 57.375C259.316 60.4583 265.982 64.8333 271.482 70.5C277.066 76.1667 281.357 83.0833 284.357 91.25C287.357 99.4167 288.857 108.542 288.857 118.625C288.857 128.792 287.357 137.958 284.357 146.125C281.357 154.292 277.066 161.25 271.482 167C265.982 172.75 259.316 177.167 251.482 180.25C243.732 183.333 235.107 184.875 225.607 184.875C216.024 184.875 207.316 183.333 199.482 180.25C191.649 177.167 184.941 172.75 179.357 167C173.857 161.25 169.566 154.292 166.482 146.125C163.482 137.958 161.982 128.792 161.982 118.625C161.982 108.542 163.482 99.4167 166.482 91.25C169.566 83.0833 173.857 76.1667 179.357 70.5C184.941 64.8333 191.649 60.4583 199.482 57.375C207.316 54.2917 216.024 52.75 225.607 52.75ZM225.607 161.125C236.274 161.125 244.149 157.542 249.232 150.375C254.399 143.208 256.982 132.708 256.982 118.875C256.982 105.042 254.399 94.5 249.232 87.25C244.149 80 236.274 76.375 225.607 76.375C214.774 76.375 206.732 80.0417 201.482 87.375C196.316 94.625 193.732 105.125 193.732 118.875C193.732 132.625 196.316 143.125 201.482 150.375C206.732 157.542 214.774 161.125 225.607 161.125ZM341.287 70.5C343.87 67.9167 346.579 65.5417 349.412 63.375C352.329 61.125 355.37 59.25 358.537 57.75C361.787 56.1667 365.245 54.9583 368.912 54.125C372.579 53.2083 376.579 52.75 380.912 52.75C387.912 52.75 394.12 53.9583 399.537 56.375C404.954 58.7083 409.454 62.0417 413.037 66.375C416.704 70.625 419.454 75.75 421.287 81.75C423.204 87.6667 424.162 94.2083 424.162 101.375V183H393.287V101.375C393.287 93.5417 391.495 87.5 387.912 83.25C384.329 78.9167 378.87 76.75 371.537 76.75C366.204 76.75 361.204 77.9583 356.537 80.375C351.87 82.7917 347.454 86.0833 343.287 90.25V183H312.412V54.75H331.287C335.287 54.75 337.912 56.625 339.162 60.375L341.287 70.5ZM494.566 185C483.4 185 474.816 181.875 468.816 175.625C462.9 169.292 459.941 160.583 459.941 149.5V77.875H446.816C445.15 77.875 443.733 77.3333 442.566 76.25C441.4 75.1667 440.816 73.5417 440.816 71.375V59.125L461.441 55.75L467.941 20.75C468.358 19.0833 469.15 17.7917 470.316 16.875C471.483 15.9583 472.983 15.5 474.816 15.5H490.816V55.875H525.066V77.875H490.816V147.375C490.816 151.375 491.775 154.5 493.691 156.75C495.691 159 498.4 160.125 501.816 160.125C503.733 160.125 505.316 159.917 506.566 159.5C507.9 159 509.025 158.5 509.941 158C510.941 157.5 511.816 157.042 512.566 156.625C513.316 156.125 514.066 155.875 514.816 155.875C515.733 155.875 516.483 156.125 517.066 156.625C517.65 157.042 518.275 157.708 518.941 158.625L528.191 173.625C523.691 177.375 518.525 180.208 512.691 182.125C506.858 184.042 500.816 185 494.566 185ZM612.584 128.25C603.667 128.667 596.167 129.458 590.084 130.625C584.001 131.708 579.126 133.125 575.459 134.875C571.792 136.625 569.167 138.667 567.584 141C566.001 143.333 565.209 145.875 565.209 148.625C565.209 154.042 566.792 157.917 569.959 160.25C573.209 162.583 577.417 163.75 582.584 163.75C588.917 163.75 594.376 162.625 598.959 160.375C603.626 158.042 608.167 154.542 612.584 149.875V128.25ZM541.834 72.625C556.584 59.125 574.334 52.375 595.084 52.375C602.584 52.375 609.292 53.625 615.209 56.125C621.126 58.5417 626.126 61.9583 630.209 66.375C634.292 70.7083 637.376 75.9167 639.459 82C641.626 88.0833 642.709 94.75 642.709 102V183H628.709C625.792 183 623.542 182.583 621.959 181.75C620.376 180.833 619.126 179.042 618.209 176.375L615.459 167.125C612.209 170.042 609.042 172.625 605.959 174.875C602.876 177.042 599.667 178.875 596.334 180.375C593.001 181.875 589.417 183 585.584 183.75C581.834 184.583 577.667 185 573.084 185C567.667 185 562.667 184.292 558.084 182.875C553.501 181.375 549.542 179.167 546.209 176.25C542.876 173.333 540.292 169.708 538.459 165.375C536.626 161.042 535.709 156 535.709 150.25C535.709 147 536.251 143.792 537.334 140.625C538.417 137.375 540.167 134.292 542.584 131.375C545.084 128.458 548.292 125.708 552.209 123.125C556.126 120.542 560.917 118.292 566.584 116.375C572.334 114.458 579.001 112.917 586.584 111.75C594.167 110.5 602.834 109.75 612.584 109.5V102C612.584 93.4167 610.751 87.0833 607.084 83C603.417 78.8333 598.126 76.75 591.209 76.75C586.209 76.75 582.042 77.3333 578.709 78.5C575.459 79.6667 572.584 81 570.084 82.5C567.584 83.9167 565.292 85.2083 563.209 86.375C561.209 87.5417 558.959 88.125 556.459 88.125C554.292 88.125 552.459 87.5833 550.959 86.5C549.459 85.3333 548.251 84 547.334 82.5L541.834 72.625ZM763.662 81.875C762.745 83.0417 761.829 83.9583 760.912 84.625C760.079 85.2917 758.829 85.625 757.162 85.625C755.579 85.625 754.037 85.1667 752.537 84.25C751.037 83.25 749.245 82.1667 747.162 81C745.079 79.75 742.579 78.6667 739.662 77.75C736.829 76.75 733.287 76.25 729.037 76.25C723.62 76.25 718.87 77.25 714.787 79.25C710.704 81.1667 707.287 83.9583 704.537 87.625C701.87 91.2917 699.87 95.75 698.537 101C697.204 106.167 696.537 112.042 696.537 118.625C696.537 125.458 697.245 131.542 698.662 136.875C700.162 142.208 702.287 146.708 705.037 150.375C707.787 153.958 711.12 156.708 715.037 158.625C718.954 160.458 723.37 161.375 728.287 161.375C733.204 161.375 737.162 160.792 740.162 159.625C743.245 158.375 745.829 157.042 747.912 155.625C749.995 154.125 751.787 152.792 753.287 151.625C754.87 150.375 756.62 149.75 758.537 149.75C761.037 149.75 762.912 150.708 764.162 152.625L773.037 163.875C769.62 167.875 765.912 171.25 761.912 174C757.912 176.667 753.745 178.833 749.412 180.5C745.162 182.083 740.745 183.208 736.162 183.875C731.662 184.542 727.162 184.875 722.662 184.875C714.745 184.875 707.287 183.417 700.287 180.5C693.287 177.5 687.162 173.167 681.912 167.5C676.662 161.833 672.495 154.917 669.412 146.75C666.412 138.5 664.912 129.125 664.912 118.625C664.912 109.208 666.245 100.5 668.912 92.5C671.662 84.4167 675.662 77.4583 680.912 71.625C686.162 65.7083 692.662 61.0833 700.412 57.75C708.162 54.4167 717.079 52.75 727.162 52.75C736.745 52.75 745.12 54.2917 752.287 57.375C759.537 60.4583 766.037 64.875 771.787 70.625L763.662 81.875ZM835.143 185C823.976 185 815.393 181.875 809.393 175.625C803.476 169.292 800.518 160.583 800.518 149.5V77.875H787.393C785.726 77.875 784.309 77.3333 783.143 76.25C781.976 75.1667 781.393 73.5417 781.393 71.375V59.125L802.018 55.75L808.518 20.75C808.934 19.0833 809.726 17.7917 810.893 16.875C812.059 15.9583 813.559 15.5 815.393 15.5H831.393V55.875H865.643V77.875H831.393V147.375C831.393 151.375 832.351 154.5 834.268 156.75C836.268 159 838.976 160.125 842.393 160.125C844.309 160.125 845.893 159.917 847.143 159.5C848.476 159 849.601 158.5 850.518 158C851.518 157.5 852.393 157.042 853.143 156.625C853.893 156.125 854.643 155.875 855.393 155.875C856.309 155.875 857.059 156.125 857.643 156.625C858.226 157.042 858.851 157.708 859.518 158.625L868.768 173.625C864.268 177.375 859.101 180.208 853.268 182.125C847.434 184.042 841.393 185 835.143 185ZM1023.83 155.875C1030.33 155.875 1036.12 154.792 1041.2 152.625C1046.37 150.458 1050.7 147.417 1054.2 143.5C1057.7 139.583 1060.37 134.833 1062.2 129.25C1064.12 123.667 1065.08 117.417 1065.08 110.5V2.24999H1098.7V110.5C1098.7 121.25 1096.95 131.208 1093.45 140.375C1090.03 149.458 1085.08 157.333 1078.58 164C1072.16 170.583 1064.33 175.75 1055.08 179.5C1045.83 183.167 1035.41 185 1023.83 185C1012.16 185 1001.7 183.167 992.451 179.5C983.201 175.75 975.326 170.583 968.826 164C962.41 157.333 957.451 149.458 953.951 140.375C950.535 131.208 948.826 121.25 948.826 110.5V2.24999H982.451V110.375C982.451 117.292 983.368 123.542 985.201 129.125C987.118 134.708 989.826 139.5 993.326 143.5C996.91 147.417 1001.24 150.458 1006.33 152.625C1011.49 154.792 1017.33 155.875 1023.83 155.875ZM1204.63 79.75C1203.79 81.0833 1202.92 82.0417 1202 82.625C1201.09 83.125 1199.92 83.375 1198.5 83.375C1197 83.375 1195.38 82.9583 1193.63 82.125C1191.96 81.2917 1190 80.375 1187.75 79.375C1185.5 78.2917 1182.92 77.3333 1180 76.5C1177.17 75.6667 1173.79 75.25 1169.88 75.25C1163.79 75.25 1159 76.5417 1155.5 79.125C1152.09 81.7083 1150.38 85.0833 1150.38 89.25C1150.38 92 1151.25 94.3333 1153 96.25C1154.84 98.0833 1157.21 99.7083 1160.13 101.125C1163.13 102.542 1166.5 103.833 1170.25 105C1174 106.083 1177.79 107.292 1181.63 108.625C1185.54 109.958 1189.38 111.5 1193.13 113.25C1196.88 114.917 1200.21 117.083 1203.13 119.75C1206.13 122.333 1208.5 125.458 1210.25 129.125C1212.09 132.792 1213 137.208 1213 142.375C1213 148.542 1211.88 154.25 1209.63 159.5C1207.46 164.667 1204.21 169.167 1199.88 173C1195.54 176.75 1190.17 179.708 1183.75 181.875C1177.42 183.958 1170.09 185 1161.75 185C1157.34 185 1153 184.583 1148.75 183.75C1144.59 183 1140.54 181.917 1136.63 180.5C1132.79 179.083 1129.21 177.417 1125.88 175.5C1122.63 173.583 1119.75 171.5 1117.25 169.25L1124.38 157.5C1125.29 156.083 1126.38 155 1127.63 154.25C1128.88 153.5 1130.46 153.125 1132.38 153.125C1134.29 153.125 1136.09 153.667 1137.75 154.75C1139.5 155.833 1141.5 157 1143.75 158.25C1146 159.5 1148.63 160.667 1151.63 161.75C1154.71 162.833 1158.59 163.375 1163.25 163.375C1166.92 163.375 1170.04 162.958 1172.63 162.125C1175.29 161.208 1177.46 160.042 1179.13 158.625C1180.88 157.208 1182.13 155.583 1182.88 153.75C1183.71 151.833 1184.13 149.875 1184.13 147.875C1184.13 144.875 1183.21 142.417 1181.38 140.5C1179.63 138.583 1177.25 136.917 1174.25 135.5C1171.34 134.083 1167.96 132.833 1164.13 131.75C1160.38 130.583 1156.5 129.333 1152.5 128C1148.59 126.667 1144.71 125.125 1140.88 123.375C1137.13 121.542 1133.75 119.25 1130.75 116.5C1127.84 113.75 1125.46 110.375 1123.63 106.375C1121.88 102.375 1121 97.5417 1121 91.875C1121 86.625 1122.04 81.625 1124.13 76.875C1126.21 72.125 1129.25 68 1133.25 64.5C1137.34 60.9167 1142.38 58.0833 1148.38 56C1154.46 53.8333 1161.46 52.75 1169.38 52.75C1178.21 52.75 1186.25 54.2083 1193.5 57.125C1200.75 60.0417 1206.79 63.875 1211.63 68.625L1204.63 79.75Z" fill="#29166F" fill-opacity="0.05"/>
</svg>
